ISO-10303-21;
HEADER;

/* File generated by HOOPS Exchange Version 24.5.0 */

FILE_DESCRIPTION(('HOOPS Exchange Step'),'2;1');

FILE_NAME('C:/Users/Legit/Documents/GitHub/Inspirefly/Pocketqube-parent-antennaBoard/KiCAD/CircularPatchV3.step',
'2026-03-01T12:11:18-05:00',
('Beans'),
('Unknown organisation'),
'HOOPS Exchange 2024.5',
'HOOPS Exchange',
'Unknown authorisation');

FILE_SCHEMA( ('AP242_MANAGED_MODEL_BASED_3D_ENGINEERING_MIM_LF {1 0 10303 442 1 1 4 }') );

ENDSEC;

DATA;
#3=(NAMED_UNIT(*)PLANE_ANGLE_UNIT()SI_UNIT($,.RADIAN.));
#4=PLANE_ANGLE_MEASURE_WITH_UNIT(PLANE_ANGLE_MEASURE(0.0174532925),#3);
#5=(CONVERSION_BASED_UNIT('DEGREE',#4)NAMED_UNIT(#6)PLANE_ANGLE_UNIT());
#6=DIMENSIONAL_EXPONENTS(0.,0.,0.,0.,0.,0.,0.);
#7=(NAMED_UNIT(*)SI_UNIT($,.STERADIAN.)SOLID_ANGLE_UNIT());
#8=(LENGTH_UNIT()NAMED_UNIT(*)SI_UNIT(.MILLI.,.METRE.));
#9=UNCERTAINTY_MEASURE_WITH_UNIT(LENGTH_MEASURE(1.000000E-05),#8,'DISTANCE_ACCURACY_VALUE','Maximum Tolerance applied to model');
#10=(GEOMETRIC_REPRESENTATION_CONTEXT(3)GLOBAL_UNCERTAINTY_ASSIGNED_CONTEXT((#9))GLOBAL_UNIT_ASSIGNED_CONTEXT((#8,#5,#7))REPRESENTATION_CONTEXT('','CircularPatchV3_intermediate'));
#12=CARTESIAN_POINT('',(0.,0.,0.));
#13=DIRECTION('',(0.,0.,1.));
#14=DIRECTION('',(1.,0.,0.));
#15=AXIS2_PLACEMENT_3D('',#12,#13,#14);
#27=CARTESIAN_POINT('',(0.,0.,0.7874));
#28=DIRECTION('',(0.,0.,1.));
#29=DIRECTION('',(1.,0.,0.));
#30=AXIS2_PLACEMENT_3D('',#27,#28,#29);
#31=PLANE('',#30);
#32=CARTESIAN_POINT('',(1.08,8.6,0.7874));
#33=VERTEX_POINT('',#32);
#34=CARTESIAN_POINT('',(0.,8.6,0.7874));
#35=DIRECTION('',(0.,0.,1.));
#36=DIRECTION('',(1.,0.,-0.));
#37=AXIS2_PLACEMENT_3D('',#34,#35,#36);
#38=CIRCLE('',#37,1.08);
#39=EDGE_CURVE('',#33,#33,#38,.T.);
#40=ORIENTED_EDGE('',*,*,#39,.F.);
#41=EDGE_LOOP('',(#40));
#42=FACE_BOUND('',#41,.T.);
#43=CARTESIAN_POINT('',(9.68,-0.,0.7874));
#44=VERTEX_POINT('',#43);
#45=CARTESIAN_POINT('',(8.6,0.,0.7874));
#46=DIRECTION('',(0.,0.,1.));
#47=DIRECTION('',(1.,0.,-0.));
#48=AXIS2_PLACEMENT_3D('',#45,#46,#47);
#49=CIRCLE('',#48,1.08);
#50=EDGE_CURVE('',#44,#44,#49,.T.);
#51=ORIENTED_EDGE('',*,*,#50,.F.);
#52=EDGE_LOOP('',(#51));
#53=FACE_BOUND('',#52,.T.);
#54=CARTESIAN_POINT('',(26.532342687,-26.532342687,0.7874));
#55=VERTEX_POINT('',#54);
#56=CARTESIAN_POINT('',(-26.532342687,-26.532342687,0.7874));
#57=VERTEX_POINT('',#56);
#58=CARTESIAN_POINT('',(26.532342687,-26.532342687,0.7874));
#59=DIRECTION('',(-1.,0.,0.));
#60=VECTOR('',#59,53.064685375);
#61=LINE('',#58,#60);
#62=EDGE_CURVE('',#55,#57,#61,.T.);
#63=ORIENTED_EDGE('',*,*,#62,.F.);
#64=CARTESIAN_POINT('',(26.532342687,26.532342687,0.7874));
#65=VERTEX_POINT('',#64);
#66=CARTESIAN_POINT('',(26.532342687,26.532342687,0.7874));
#67=DIRECTION('',(0.,-1.,0.));
#68=VECTOR('',#67,53.064685375);
#69=LINE('',#66,#68);
#70=EDGE_CURVE('',#65,#55,#69,.T.);
#71=ORIENTED_EDGE('',*,*,#70,.F.);
#72=CARTESIAN_POINT('',(-26.532342687,26.532342687,0.7874));
#73=VERTEX_POINT('',#72);
#74=CARTESIAN_POINT('',(-26.532342687,26.532342687,0.7874));
#75=DIRECTION('',(1.,0.,-0.));
#76=VECTOR('',#75,53.064685375);
#77=LINE('',#74,#76);
#78=EDGE_CURVE('',#73,#65,#77,.T.);
#79=ORIENTED_EDGE('',*,*,#78,.F.);
#80=CARTESIAN_POINT('',(-26.532342687,-26.532342687,0.7874));
#81=DIRECTION('',(0.,1.,0.));
#82=VECTOR('',#81,53.064685375);
#83=LINE('',#80,#82);
#84=EDGE_CURVE('',#57,#73,#83,.T.);
#85=ORIENTED_EDGE('',*,*,#84,.F.);
#86=EDGE_LOOP('',(#63,#71,#79,#85));
#87=FACE_BOUND('',#86,.T.);
#88=ADVANCED_FACE('',(#42,#53,#87),#31,.T.);
#89=CARTESIAN_POINT('',(0.,-26.532342687,0.));
#90=DIRECTION('',(0.,-1.,0.));
#91=DIRECTION('',(0.,0.,-1.));
#92=AXIS2_PLACEMENT_3D('',#89,#90,#91);
#93=PLANE('',#92);
#94=CARTESIAN_POINT('',(26.532342687,-26.532342687,0.));
#95=VERTEX_POINT('',#94);
#96=CARTESIAN_POINT('',(26.532342687,-26.532342687,0.));
#97=DIRECTION('',(0.,0.,1.));
#98=VECTOR('',#97,0.7874);
#99=LINE('',#96,#98);
#100=EDGE_CURVE('',#95,#55,#99,.T.);
#101=ORIENTED_EDGE('',*,*,#100,.T.);
#102=ORIENTED_EDGE('',*,*,#62,.T.);
#103=CARTESIAN_POINT('',(-26.532342687,-26.532342687,0.));
#104=VERTEX_POINT('',#103);
#105=CARTESIAN_POINT('',(-26.532342687,-26.532342687,0.));
#106=DIRECTION('',(0.,0.,1.));
#107=VECTOR('',#106,0.7874);
#108=LINE('',#105,#107);
#109=EDGE_CURVE('',#104,#57,#108,.T.);
#110=ORIENTED_EDGE('',*,*,#109,.F.);
#111=CARTESIAN_POINT('',(-26.532342687,-26.532342687,0.));
#112=DIRECTION('',(1.,0.,-0.));
#113=VECTOR('',#112,53.064685375);
#114=LINE('',#111,#113);
#115=EDGE_CURVE('',#104,#95,#114,.T.);
#116=ORIENTED_EDGE('',*,*,#115,.T.);
#117=EDGE_LOOP('',(#101,#102,#110,#116));
#118=FACE_BOUND('',#117,.T.);
#119=ADVANCED_FACE('',(#118),#93,.T.);
#120=CARTESIAN_POINT('',(-26.532342687,0.,0.));
#121=DIRECTION('',(-1.,0.,0.));
#122=DIRECTION('',(0.,0.,1.));
#123=AXIS2_PLACEMENT_3D('',#120,#121,#122);
#124=PLANE('',#123);
#125=ORIENTED_EDGE('',*,*,#109,.T.);
#126=ORIENTED_EDGE('',*,*,#84,.T.);
#127=CARTESIAN_POINT('',(-26.532342687,26.532342687,0.));
#128=VERTEX_POINT('',#127);
#129=CARTESIAN_POINT('',(-26.532342687,26.532342687,0.));
#130=DIRECTION('',(0.,0.,1.));
#131=VECTOR('',#130,0.7874);
#132=LINE('',#129,#131);
#133=EDGE_CURVE('',#128,#73,#132,.T.);
#134=ORIENTED_EDGE('',*,*,#133,.F.);
#135=CARTESIAN_POINT('',(-26.532342687,26.532342687,0.));
#136=DIRECTION('',(0.,-1.,0.));
#137=VECTOR('',#136,53.064685375);
#138=LINE('',#135,#137);
#139=EDGE_CURVE('',#128,#104,#138,.T.);
#140=ORIENTED_EDGE('',*,*,#139,.T.);
#141=EDGE_LOOP('',(#125,#126,#134,#140));
#142=FACE_BOUND('',#141,.T.);
#143=ADVANCED_FACE('',(#142),#124,.T.);
#144=CARTESIAN_POINT('',(0.,26.532342687,0.));
#145=DIRECTION('',(0.,1.,0.));
#146=DIRECTION('',(0.,0.,1.));
#147=AXIS2_PLACEMENT_3D('',#144,#145,#146);
#148=PLANE('',#147);
#149=ORIENTED_EDGE('',*,*,#133,.T.);
#150=ORIENTED_EDGE('',*,*,#78,.T.);
#151=CARTESIAN_POINT('',(26.532342687,26.532342687,0.));
#152=VERTEX_POINT('',#151);
#153=CARTESIAN_POINT('',(26.532342687,26.532342687,0.));
#154=DIRECTION('',(0.,0.,1.));
#155=VECTOR('',#154,0.7874);
#156=LINE('',#153,#155);
#157=EDGE_CURVE('',#152,#65,#156,.T.);
#158=ORIENTED_EDGE('',*,*,#157,.F.);
#159=CARTESIAN_POINT('',(26.532342687,26.532342687,0.));
#160=DIRECTION('',(-1.,0.,0.));
#161=VECTOR('',#160,53.064685375);
#162=LINE('',#159,#161);
#163=EDGE_CURVE('',#152,#128,#162,.T.);
#164=ORIENTED_EDGE('',*,*,#163,.T.);
#165=EDGE_LOOP('',(#149,#150,#158,#164));
#166=FACE_BOUND('',#165,.T.);
#167=ADVANCED_FACE('',(#166),#148,.T.);
#168=CARTESIAN_POINT('',(0.,0.,0.));
#169=DIRECTION('',(0.,0.,-1.));
#170=DIRECTION('',(-1.,0.,0.));
#171=AXIS2_PLACEMENT_3D('',#168,#169,#170);
#172=PLANE('',#171);
#173=CARTESIAN_POINT('',(1.08,8.6,0.));
#174=VERTEX_POINT('',#173);
#175=CARTESIAN_POINT('',(0.,8.6,0.));
#176=DIRECTION('',(0.,0.,1.));
#177=DIRECTION('',(1.,0.,-0.));
#178=AXIS2_PLACEMENT_3D('',#175,#176,#177);
#179=CIRCLE('',#178,1.08);
#180=EDGE_CURVE('',#174,#174,#179,.T.);
#181=ORIENTED_EDGE('',*,*,#180,.T.);
#182=EDGE_LOOP('',(#181));
#183=FACE_BOUND('',#182,.T.);
#184=CARTESIAN_POINT('',(9.68,-0.,0.));
#185=VERTEX_POINT('',#184);
#186=CARTESIAN_POINT('',(8.6,0.,0.));
#187=DIRECTION('',(0.,0.,1.));
#188=DIRECTION('',(1.,0.,-0.));
#189=AXIS2_PLACEMENT_3D('',#186,#187,#188);
#190=CIRCLE('',#189,1.08);
#191=EDGE_CURVE('',#185,#185,#190,.T.);
#192=ORIENTED_EDGE('',*,*,#191,.T.);
#193=EDGE_LOOP('',(#192));
#194=FACE_BOUND('',#193,.T.);
#195=CARTESIAN_POINT('',(26.532342687,-26.532342687,0.));
#196=DIRECTION('',(0.,1.,0.));
#197=VECTOR('',#196,53.064685375);
#198=LINE('',#195,#197);
#199=EDGE_CURVE('',#95,#152,#198,.T.);
#200=ORIENTED_EDGE('',*,*,#199,.F.);
#201=ORIENTED_EDGE('',*,*,#115,.F.);
#202=ORIENTED_EDGE('',*,*,#139,.F.);
#203=ORIENTED_EDGE('',*,*,#163,.F.);
#204=EDGE_LOOP('',(#200,#201,#202,#203));
#205=FACE_BOUND('',#204,.T.);
#206=ADVANCED_FACE('',(#183,#194,#205),#172,.T.);
#207=CARTESIAN_POINT('',(26.532342687,0.,0.));
#208=DIRECTION('',(1.,0.,0.));
#209=DIRECTION('',(0.,0.,-1.));
#210=AXIS2_PLACEMENT_3D('',#207,#208,#209);
#211=PLANE('',#210);
#212=ORIENTED_EDGE('',*,*,#199,.T.);
#213=ORIENTED_EDGE('',*,*,#157,.T.);
#214=ORIENTED_EDGE('',*,*,#70,.T.);
#215=ORIENTED_EDGE('',*,*,#100,.F.);
#216=EDGE_LOOP('',(#212,#213,#214,#215));
#217=FACE_BOUND('',#216,.T.);
#218=ADVANCED_FACE('',(#217),#211,.T.);
#219=CARTESIAN_POINT('',(8.6,0.,0.));
#220=DIRECTION('',(0.,0.,1.));
#221=DIRECTION('',(1.,0.,-0.));
#222=AXIS2_PLACEMENT_3D('',#219,#220,#221);
#223=CYLINDRICAL_SURFACE('',#222,1.08);
#224=CARTESIAN_POINT('',(9.68,0.,0.7874));
#225=DIRECTION('',(-0.,-0.,-1.));
#226=VECTOR('',#225,0.7874);
#227=LINE('',#224,#226);
#228=EDGE_CURVE('',#44,#185,#227,.T.);
#229=ORIENTED_EDGE('',*,*,#228,.F.);
#230=ORIENTED_EDGE('',*,*,#50,.T.);
#231=ORIENTED_EDGE('',*,*,#228,.T.);
#232=ORIENTED_EDGE('',*,*,#191,.F.);
#233=EDGE_LOOP('',(#229,#230,#231,#232));
#234=FACE_BOUND('',#233,.T.);
#235=ADVANCED_FACE('',(#234),#223,.F.);
#236=CARTESIAN_POINT('',(0.,8.6,0.));
#237=DIRECTION('',(0.,0.,1.));
#238=DIRECTION('',(1.,0.,-0.));
#239=AXIS2_PLACEMENT_3D('',#236,#237,#238);
#240=CYLINDRICAL_SURFACE('',#239,1.08);
#241=CARTESIAN_POINT('',(1.08,8.6,0.7874));
#242=DIRECTION('',(-0.,-0.,-1.));
#243=VECTOR('',#242,0.7874);
#244=LINE('',#241,#243);
#245=EDGE_CURVE('',#33,#174,#244,.T.);
#246=ORIENTED_EDGE('',*,*,#245,.F.);
#247=ORIENTED_EDGE('',*,*,#39,.T.);
#248=ORIENTED_EDGE('',*,*,#245,.T.);
#249=ORIENTED_EDGE('',*,*,#180,.F.);
#250=EDGE_LOOP('',(#246,#247,#248,#249));
#251=FACE_BOUND('',#250,.T.);
#252=ADVANCED_FACE('',(#251),#240,.F.);
#253=CLOSED_SHELL('',(#88,#119,#143,#167,#206,#218,#235,#252));
#254=MANIFOLD_SOLID_BREP('Substrate',#253);
#255=COLOUR_RGB('',0.,0.501960814,1.);
#256=FILL_AREA_STYLE_COLOUR('',#255);
#257=FILL_AREA_STYLE('',(#256));
#258=SURFACE_STYLE_FILL_AREA(#257);
#259=SURFACE_SIDE_STYLE('',(#258));
#260=SURFACE_STYLE_USAGE(.BOTH.,#259);
#261=PRESENTATION_STYLE_ASSIGNMENT((#260));
#26=STYLED_ITEM('',(#261),#254);
#262=DESCRIPTIVE_REPRESENTATION_ITEM('AEDT_MaterialName_V1','Isola FR408HR');
#263=ID_ATTRIBUTE('SA #264',#264);
#264=SHAPE_ASPECT('properties','',#23,.F.);
#265=GEOMETRIC_ITEM_SPECIFIC_USAGE('','properties',#264,#17,#254);
#266=PROPERTY_DEFINITION('AEDT_MaterialName_V1','',#264);
#267=REPRESENTATION('',(#262),#10);
#268=PROPERTY_DEFINITION_REPRESENTATION(#266,#267);
#269=GENERAL_PROPERTY('','AEDT_MaterialName_V1','');
#270=GENERAL_PROPERTY_ASSOCIATION('','',#269,#266);
#271=INTEGER_REPRESENTATION_ITEM('AEDT_BODYFlagGroupColor_V1',0);
#272=INTEGER_REPRESENTATION_ITEM('AEDT_BODYFlagGroupColor_V1',-1);
#273=INTEGER_REPRESENTATION_ITEM('AEDT_BODYFlagGroupColor_V1',-2147450625);
#274=INTEGER_REPRESENTATION_ITEM('AEDT_BODYFlagGroupColor_V1',5);
#275=PROPERTY_DEFINITION('AEDT_BODYFlagGroupColor_V1','',#264);
#276=REPRESENTATION('',(#271,#272,#273,#274),#10);
#277=PROPERTY_DEFINITION_REPRESENTATION(#275,#276);
#278=GENERAL_PROPERTY('','AEDT_BODYFlagGroupColor_V1','');
#279=GENERAL_PROPERTY_ASSOCIATION('','',#278,#275);
#280=DESCRIPTIVE_REPRESENTATION_ITEM('AEDT_EntityName_V1','Substrate');
#281=PROPERTY_DEFINITION('AEDT_EntityName_V1','',#264);
#282=REPRESENTATION('',(#280),#10);
#283=PROPERTY_DEFINITION_REPRESENTATION(#281,#282);
#284=GENERAL_PROPERTY('','AEDT_EntityName_V1','');
#285=GENERAL_PROPERTY_ASSOCIATION('','',#284,#281);
#287=CARTESIAN_POINT('',(0.,0.,0.));
#288=DIRECTION('',(0.,0.,1.));
#289=DIRECTION('',(1.,0.,0.));
#290=AXIS2_PLACEMENT_3D('',#287,#288,#289);
#291=PLANE('',#290);
#292=CARTESIAN_POINT('',(3.6,8.6,0.));
#293=VERTEX_POINT('',#292);
#294=CARTESIAN_POINT('',(0.,8.6,0.));
#295=DIRECTION('',(0.,0.,1.));
#296=DIRECTION('',(1.,0.,-0.));
#297=AXIS2_PLACEMENT_3D('',#294,#295,#296);
#298=CIRCLE('',#297,3.6);
#299=EDGE_CURVE('',#293,#293,#298,.T.);
#300=ORIENTED_EDGE('',*,*,#299,.F.);
#301=EDGE_LOOP('',(#300));
#302=FACE_BOUND('',#301,.T.);
#303=CARTESIAN_POINT('',(12.2,-0.,0.));
#304=VERTEX_POINT('',#303);
#305=CARTESIAN_POINT('',(8.6,0.,0.));
#306=DIRECTION('',(0.,0.,1.));
#307=DIRECTION('',(1.,0.,-0.));
#308=AXIS2_PLACEMENT_3D('',#305,#306,#307);
#309=CIRCLE('',#308,3.6);
#310=EDGE_CURVE('',#304,#304,#309,.T.);
#311=ORIENTED_EDGE('',*,*,#310,.F.);
#312=EDGE_LOOP('',(#311));
#313=FACE_BOUND('',#312,.T.);
#314=CARTESIAN_POINT('',(-26.532342687,26.532342687,0.));
#315=VERTEX_POINT('',#314);
#316=CARTESIAN_POINT('',(-26.532342687,-26.532342687,0.));
#317=VERTEX_POINT('',#316);
#318=CARTESIAN_POINT('',(-26.532342687,26.532342687,0.));
#319=DIRECTION('',(0.,-1.,0.));
#320=VECTOR('',#319,53.064685375);
#321=LINE('',#318,#320);
#322=EDGE_CURVE('',#315,#317,#321,.T.);
#323=ORIENTED_EDGE('',*,*,#322,.T.);
#324=CARTESIAN_POINT('',(26.532342687,-26.532342687,0.));
#325=VERTEX_POINT('',#324);
#326=CARTESIAN_POINT('',(-26.532342687,-26.532342687,0.));
#327=DIRECTION('',(1.,0.,-0.));
#328=VECTOR('',#327,53.064685375);
#329=LINE('',#326,#328);
#330=EDGE_CURVE('',#317,#325,#329,.T.);
#331=ORIENTED_EDGE('',*,*,#330,.T.);
#332=CARTESIAN_POINT('',(26.532342687,26.532342687,0.));
#333=VERTEX_POINT('',#332);
#334=CARTESIAN_POINT('',(26.532342687,-26.532342687,0.));
#335=DIRECTION('',(0.,1.,0.));
#336=VECTOR('',#335,53.064685375);
#337=LINE('',#334,#336);
#338=EDGE_CURVE('',#325,#333,#337,.T.);
#339=ORIENTED_EDGE('',*,*,#338,.T.);
#340=CARTESIAN_POINT('',(26.532342687,26.532342687,0.));
#341=DIRECTION('',(-1.,0.,0.));
#342=VECTOR('',#341,53.064685375);
#343=LINE('',#340,#342);
#344=EDGE_CURVE('',#333,#315,#343,.T.);
#345=ORIENTED_EDGE('',*,*,#344,.T.);
#346=EDGE_LOOP('',(#323,#331,#339,#345));
#347=FACE_BOUND('',#346,.T.);
#348=ADVANCED_FACE('',(#302,#313,#347),#291,.T.);
#349=OPEN_SHELL('',(#348));
#350=SHELL_BASED_SURFACE_MODEL('Ground',(#349));
#351=COLOUR_RGB('',0.501960814,0.250980407,0.250980407);
#352=FILL_AREA_STYLE_COLOUR('',#351);
#353=FILL_AREA_STYLE('',(#352));
#354=SURFACE_STYLE_FILL_AREA(#353);
#355=SURFACE_SIDE_STYLE('',(#354));
#356=SURFACE_STYLE_USAGE(.BOTH.,#355);
#357=PRESENTATION_STYLE_ASSIGNMENT((#356));
#286=STYLED_ITEM('',(#357),#350);
#358=DESCRIPTIVE_REPRESENTATION_ITEM('AEDT_MaterialName_V1','vacuum');
#359=ID_ATTRIBUTE('SA #360',#360);
#360=SHAPE_ASPECT('properties','',#23,.F.);
#361=GEOMETRIC_ITEM_SPECIFIC_USAGE('','properties',#360,#21,#350);
#362=PROPERTY_DEFINITION('AEDT_MaterialName_V1','',#360);
#363=REPRESENTATION('',(#358),#10);
#364=PROPERTY_DEFINITION_REPRESENTATION(#362,#363);
#365=GENERAL_PROPERTY('','AEDT_MaterialName_V1','');
#366=GENERAL_PROPERTY_ASSOCIATION('','',#365,#362);
#367=INTEGER_REPRESENTATION_ITEM('AEDT_BODYFlagGroupColor_V1',0);
#368=INTEGER_REPRESENTATION_ITEM('AEDT_BODYFlagGroupColor_V1',-1);
#369=INTEGER_REPRESENTATION_ITEM('AEDT_BODYFlagGroupColor_V1',-2139078592);
#370=INTEGER_REPRESENTATION_ITEM('AEDT_BODYFlagGroupColor_V1',5);
#371=PROPERTY_DEFINITION('AEDT_BODYFlagGroupColor_V1','',#360);
#372=REPRESENTATION('',(#367,#368,#369,#370),#10);
#373=PROPERTY_DEFINITION_REPRESENTATION(#371,#372);
#374=GENERAL_PROPERTY('','AEDT_BODYFlagGroupColor_V1','');
#375=GENERAL_PROPERTY_ASSOCIATION('','',#374,#371);
#376=DESCRIPTIVE_REPRESENTATION_ITEM('AEDT_EntityName_V1','Ground');
#377=PROPERTY_DEFINITION('AEDT_EntityName_V1','',#360);
#378=REPRESENTATION('',(#376),#10);
#379=PROPERTY_DEFINITION_REPRESENTATION(#377,#378);
#380=GENERAL_PROPERTY('','AEDT_EntityName_V1','');
#381=GENERAL_PROPERTY_ASSOCIATION('','',#380,#377);
#383=CARTESIAN_POINT('',(0.,0.,0.7874));
#384=DIRECTION('',(0.,0.,1.));
#385=DIRECTION('',(1.,0.,-0.));
#386=AXIS2_PLACEMENT_3D('',#383,#384,#385);
#387=CYLINDRICAL_SURFACE('',#386,22.51612583);
#388=CARTESIAN_POINT('',(-1.658271418,-22.454978474,0.8224));
#389=VERTEX_POINT('',#388);
#390=CARTESIAN_POINT('',(-1.658271418,-22.454978474,0.7874));
#391=VERTEX_POINT('',#390);
#392=CARTESIAN_POINT('',(-1.658271418,-22.454978474,0.8224));
#393=DIRECTION('',(-0.,-0.,-1.));
#394=VECTOR('',#393,0.035);
#395=LINE('',#392,#394);
#396=EDGE_CURVE('',#389,#391,#395,.T.);
#397=ORIENTED_EDGE('',*,*,#396,.F.);
#398=CARTESIAN_POINT('',(-22.012699851,4.734656025,0.8224));
#399=VERTEX_POINT('',#398);
#400=CARTESIAN_POINT('',(0.,0.,0.8224));
#401=DIRECTION('',(0.,0.,1.));
#402=DIRECTION('',(1.,0.,-0.));
#403=AXIS2_PLACEMENT_3D('',#400,#401,#402);
#404=CIRCLE('',#403,22.51612583);
#405=EDGE_CURVE('',#399,#389,#404,.T.);
#406=ORIENTED_EDGE('',*,*,#405,.F.);
#407=CARTESIAN_POINT('',(-22.012699851,4.734656025,0.7874));
#408=VERTEX_POINT('',#407);
#409=CARTESIAN_POINT('',(-22.012699851,4.734656025,0.7874));
#410=DIRECTION('',(0.,0.,1.));
#411=VECTOR('',#410,0.035);
#412=LINE('',#409,#411);
#413=EDGE_CURVE('',#408,#399,#412,.T.);
#414=ORIENTED_EDGE('',*,*,#413,.F.);
#415=CARTESIAN_POINT('',(0.,0.,0.7874));
#416=DIRECTION('',(0.,0.,1.));
#417=DIRECTION('',(1.,0.,-0.));
#418=AXIS2_PLACEMENT_3D('',#415,#416,#417);
#419=CIRCLE('',#418,22.51612583);
#420=EDGE_CURVE('',#408,#391,#419,.T.);
#421=ORIENTED_EDGE('',*,*,#420,.T.);
#422=EDGE_LOOP('',(#397,#406,#414,#421));
#423=FACE_BOUND('',#422,.T.);
#424=ADVANCED_FACE('',(#423),#387,.T.);
#425=CARTESIAN_POINT('',(0.,0.,0.7874));
#426=DIRECTION('',(0.,0.,1.));
#427=DIRECTION('',(1.,0.,-0.));
#428=AXIS2_PLACEMENT_3D('',#425,#426,#427);
#429=CYLINDRICAL_SURFACE('',#428,22.51612583);
#430=CARTESIAN_POINT('',(1.658271418,-22.454978474,0.7874));
#431=VERTEX_POINT('',#430);
#432=CARTESIAN_POINT('',(1.658271418,-22.454978474,0.8224));
#433=VERTEX_POINT('',#432);
#434=CARTESIAN_POINT('',(1.658271418,-22.454978474,0.7874));
#435=DIRECTION('',(0.,0.,1.));
#436=VECTOR('',#435,0.035);
#437=LINE('',#434,#436);
#438=EDGE_CURVE('',#431,#433,#437,.T.);
#439=ORIENTED_EDGE('',*,*,#438,.F.);
#440=CARTESIAN_POINT('',(7.815297059,-21.11627463,0.7874));
#441=VERTEX_POINT('',#440);
#442=CARTESIAN_POINT('',(0.,0.,0.7874));
#443=DIRECTION('',(0.,0.,1.));
#444=DIRECTION('',(1.,0.,-0.));
#445=AXIS2_PLACEMENT_3D('',#442,#443,#444);
#446=CIRCLE('',#445,22.51612583);
#447=EDGE_CURVE('',#431,#441,#446,.T.);
#448=ORIENTED_EDGE('',*,*,#447,.T.);
#449=CARTESIAN_POINT('',(7.815297059,-21.11627463,0.8224));
#450=VERTEX_POINT('',#449);
#451=CARTESIAN_POINT('',(7.815297059,-21.11627463,0.8224));
#452=DIRECTION('',(-0.,-0.,-1.));
#453=VECTOR('',#452,0.035);
#454=LINE('',#451,#453);
#455=EDGE_CURVE('',#450,#441,#454,.T.);
#456=ORIENTED_EDGE('',*,*,#455,.F.);
#457=CARTESIAN_POINT('',(0.,0.,0.8224));
#458=DIRECTION('',(0.,0.,1.));
#459=DIRECTION('',(1.,0.,-0.));
#460=AXIS2_PLACEMENT_3D('',#457,#458,#459);
#461=CIRCLE('',#460,22.51612583);
#462=EDGE_CURVE('',#433,#450,#461,.T.);
#463=ORIENTED_EDGE('',*,*,#462,.F.);
#464=EDGE_LOOP('',(#439,#448,#456,#463));
#465=FACE_BOUND('',#464,.T.);
#466=ADVANCED_FACE('',(#465),#429,.T.);
#467=CARTESIAN_POINT('',(0.,0.,0.7874));
#468=DIRECTION('',(0.,0.,1.));
#469=DIRECTION('',(1.,0.,-0.));
#470=AXIS2_PLACEMENT_3D('',#467,#468,#469);
#471=CYLINDRICAL_SURFACE('',#470,22.51612583);
#472=CARTESIAN_POINT('',(22.51612583,-0.,0.8224));
#473=VERTEX_POINT('',#472);
#474=CARTESIAN_POINT('',(22.51612583,-0.,0.7874));
#475=VERTEX_POINT('',#474);
#476=CARTESIAN_POINT('',(22.51612583,0.,0.8224));
#477=DIRECTION('',(-0.,-0.,-1.));
#478=VECTOR('',#477,0.035);
#479=LINE('',#476,#478);
#480=EDGE_CURVE('',#473,#475,#479,.T.);
#481=ORIENTED_EDGE('',*,*,#480,.T.);
#482=CARTESIAN_POINT('',(-7.815297059,21.11627463,0.7874));
#483=VERTEX_POINT('',#482);
#484=CARTESIAN_POINT('',(0.,0.,0.7874));
#485=DIRECTION('',(0.,0.,1.));
#486=DIRECTION('',(1.,0.,-0.));
#487=AXIS2_PLACEMENT_3D('',#484,#485,#486);
#488=CIRCLE('',#487,22.51612583);
#489=EDGE_CURVE('',#475,#483,#488,.T.);
#490=ORIENTED_EDGE('',*,*,#489,.T.);
#491=CARTESIAN_POINT('',(-7.815297059,21.11627463,0.8224));
#492=VERTEX_POINT('',#491);
#493=CARTESIAN_POINT('',(-7.815297059,21.11627463,0.8224));
#494=DIRECTION('',(-0.,-0.,-1.));
#495=VECTOR('',#494,0.035);
#496=LINE('',#493,#495);
#497=EDGE_CURVE('',#492,#483,#496,.T.);
#498=ORIENTED_EDGE('',*,*,#497,.F.);
#499=CARTESIAN_POINT('',(0.,0.,0.8224));
#500=DIRECTION('',(0.,0.,1.));
#501=DIRECTION('',(1.,0.,-0.));
#502=AXIS2_PLACEMENT_3D('',#499,#500,#501);
#503=CIRCLE('',#502,22.51612583);
#504=EDGE_CURVE('',#473,#492,#503,.T.);
#505=ORIENTED_EDGE('',*,*,#504,.F.);
#506=EDGE_LOOP('',(#481,#490,#498,#505));
#507=FACE_BOUND('',#506,.T.);
#508=ADVANCED_FACE('',(#507),#471,.T.);
#509=CARTESIAN_POINT('',(0.,0.,0.8224));
#510=DIRECTION('',(0.,0.,1.));
#511=DIRECTION('',(1.,0.,0.));
#512=AXIS2_PLACEMENT_3D('',#509,#510,#511);
#513=PLANE('',#512);
#514=ORIENTED_EDGE('',*,*,#405,.T.);
#515=CARTESIAN_POINT('',(-1.658271418,-26.532342687,0.8224));
#516=VERTEX_POINT('',#515);
#517=CARTESIAN_POINT('',(-1.658271418,-26.532342687,0.8224));
#518=DIRECTION('',(0.,1.,0.));
#519=VECTOR('',#518,4.077364213);
#520=LINE('',#517,#519);
#521=EDGE_CURVE('',#516,#389,#520,.T.);
#522=ORIENTED_EDGE('',*,*,#521,.F.);
#523=CARTESIAN_POINT('',(1.658271418,-26.532342687,0.8224));
#524=VERTEX_POINT('',#523);
#525=CARTESIAN_POINT('',(1.658271418,-26.532342687,0.8224));
#526=DIRECTION('',(-1.,0.,0.));
#527=VECTOR('',#526,3.316542836);
#528=LINE('',#525,#527);
#529=EDGE_CURVE('',#524,#516,#528,.T.);
#530=ORIENTED_EDGE('',*,*,#529,.F.);
#531=CARTESIAN_POINT('',(1.658271418,-22.454978474,0.8224));
#532=DIRECTION('',(0.,-1.,0.));
#533=VECTOR('',#532,4.077364213);
#534=LINE('',#531,#533);
#535=EDGE_CURVE('',#433,#524,#534,.T.);
#536=ORIENTED_EDGE('',*,*,#535,.F.);
#537=ORIENTED_EDGE('',*,*,#462,.T.);
#538=CARTESIAN_POINT('',(22.012699851,-4.734656025,0.8224));
#539=VERTEX_POINT('',#538);
#540=CARTESIAN_POINT('',(22.012699851,-4.734656025,0.8224));
#541=DIRECTION('',(-0.654930538,-0.755689083,0.));
#542=VECTOR('',#541,21.677722993);
#543=LINE('',#540,#542);
#544=EDGE_CURVE('',#539,#450,#543,.T.);
#545=ORIENTED_EDGE('',*,*,#544,.F.);
#546=CARTESIAN_POINT('',(0.,0.,0.8224));
#547=DIRECTION('',(0.,0.,1.));
#548=DIRECTION('',(1.,0.,-0.));
#549=AXIS2_PLACEMENT_3D('',#546,#547,#548);
#550=CIRCLE('',#549,22.51612583);
#551=EDGE_CURVE('',#539,#473,#550,.T.);
#552=ORIENTED_EDGE('',*,*,#551,.T.);
#553=ORIENTED_EDGE('',*,*,#504,.T.);
#554=CARTESIAN_POINT('',(-22.012699851,4.734656025,0.8224));
#555=DIRECTION('',(0.654930538,0.755689083,0.));
#556=VECTOR('',#555,21.677722993);
#557=LINE('',#554,#556);
#558=EDGE_CURVE('',#399,#492,#557,.T.);
#559=ORIENTED_EDGE('',*,*,#558,.F.);
#560=EDGE_LOOP('',(#514,#522,#530,#536,#537,#545,#552,#553,#559));
#561=FACE_BOUND('',#560,.T.);
#562=CARTESIAN_POINT('',(1.08,8.6,0.8224));
#563=VERTEX_POINT('',#562);
#564=CARTESIAN_POINT('',(0.,8.6,0.8224));
#565=DIRECTION('',(0.,0.,-1.));
#566=DIRECTION('',(1.,0.,0.));
#567=AXIS2_PLACEMENT_3D('',#564,#565,#566);
#568=CIRCLE('',#567,1.08);
#569=EDGE_CURVE('',#563,#563,#568,.T.);
#570=ORIENTED_EDGE('',*,*,#569,.T.);
#571=EDGE_LOOP('',(#570));
#572=FACE_BOUND('',#571,.T.);
#573=CARTESIAN_POINT('',(9.68,0.,0.8224));
#574=VERTEX_POINT('',#573);
#575=CARTESIAN_POINT('',(8.6,0.,0.8224));
#576=DIRECTION('',(0.,0.,-1.));
#577=DIRECTION('',(1.,0.,0.));
#578=AXIS2_PLACEMENT_3D('',#575,#576,#577);
#579=CIRCLE('',#578,1.08);
#580=EDGE_CURVE('',#574,#574,#579,.T.);
#581=ORIENTED_EDGE('',*,*,#580,.T.);
#582=EDGE_LOOP('',(#581));
#583=FACE_BOUND('',#582,.T.);
#584=ADVANCED_FACE('',(#561,#572,#583),#513,.T.);
#585=CARTESIAN_POINT('',(0.,0.,0.7874));
#586=DIRECTION('',(0.,0.,1.));
#587=DIRECTION('',(1.,0.,0.));
#588=AXIS2_PLACEMENT_3D('',#585,#586,#587);
#589=PLANE('',#588);
#590=ORIENTED_EDGE('',*,*,#447,.F.);
#591=CARTESIAN_POINT('',(1.658271418,-26.532342687,0.7874));
#592=VERTEX_POINT('',#591);
#593=CARTESIAN_POINT('',(1.658271418,-26.532342687,0.7874));
#594=DIRECTION('',(0.,1.,0.));
#595=VECTOR('',#594,4.077364213);
#596=LINE('',#593,#595);
#597=EDGE_CURVE('',#592,#431,#596,.T.);
#598=ORIENTED_EDGE('',*,*,#597,.F.);
#599=CARTESIAN_POINT('',(-1.658271418,-26.532342687,0.7874));
#600=VERTEX_POINT('',#599);
#601=CARTESIAN_POINT('',(-1.658271418,-26.532342687,0.7874));
#602=DIRECTION('',(1.,0.,-0.));
#603=VECTOR('',#602,3.316542836);
#604=LINE('',#601,#603);
#605=EDGE_CURVE('',#600,#592,#604,.T.);
#606=ORIENTED_EDGE('',*,*,#605,.F.);
#607=CARTESIAN_POINT('',(-1.658271418,-22.454978474,0.7874));
#608=DIRECTION('',(0.,-1.,0.));
#609=VECTOR('',#608,4.077364213);
#610=LINE('',#607,#609);
#611=EDGE_CURVE('',#391,#600,#610,.T.);
#612=ORIENTED_EDGE('',*,*,#611,.F.);
#613=ORIENTED_EDGE('',*,*,#420,.F.);
#614=CARTESIAN_POINT('',(-22.012699851,4.734656025,0.7874));
#615=DIRECTION('',(0.654930538,0.755689083,0.));
#616=VECTOR('',#615,21.677722993);
#617=LINE('',#614,#616);
#618=EDGE_CURVE('',#408,#483,#617,.T.);
#619=ORIENTED_EDGE('',*,*,#618,.T.);
#620=ORIENTED_EDGE('',*,*,#489,.F.);
#621=CARTESIAN_POINT('',(22.012699851,-4.734656025,0.7874));
#622=VERTEX_POINT('',#621);
#623=CARTESIAN_POINT('',(0.,0.,0.7874));
#624=DIRECTION('',(0.,0.,1.));
#625=DIRECTION('',(1.,0.,-0.));
#626=AXIS2_PLACEMENT_3D('',#623,#624,#625);
#627=CIRCLE('',#626,22.51612583);
#628=EDGE_CURVE('',#622,#475,#627,.T.);
#629=ORIENTED_EDGE('',*,*,#628,.F.);
#630=CARTESIAN_POINT('',(22.012699851,-4.734656025,0.7874));
#631=DIRECTION('',(-0.654930538,-0.755689083,0.));
#632=VECTOR('',#631,21.677722993);
#633=LINE('',#630,#632);
#634=EDGE_CURVE('',#622,#441,#633,.T.);
#635=ORIENTED_EDGE('',*,*,#634,.T.);
#636=EDGE_LOOP('',(#590,#598,#606,#612,#613,#619,#620,#629,#635));
#637=FACE_BOUND('',#636,.T.);
#638=CARTESIAN_POINT('',(1.08,8.6,0.7874));
#639=VERTEX_POINT('',#638);
#640=CARTESIAN_POINT('',(0.,8.6,0.7874));
#641=DIRECTION('',(0.,0.,1.));
#642=DIRECTION('',(1.,0.,-0.));
#643=AXIS2_PLACEMENT_3D('',#640,#641,#642);
#644=CIRCLE('',#643,1.08);
#645=EDGE_CURVE('',#639,#639,#644,.T.);
#646=ORIENTED_EDGE('',*,*,#645,.T.);
#647=EDGE_LOOP('',(#646));
#648=FACE_BOUND('',#647,.T.);
#649=CARTESIAN_POINT('',(9.68,-0.,0.7874));
#650=VERTEX_POINT('',#649);
#651=CARTESIAN_POINT('',(8.6,0.,0.7874));
#652=DIRECTION('',(0.,0.,1.));
#653=DIRECTION('',(1.,0.,-0.));
#654=AXIS2_PLACEMENT_3D('',#651,#652,#653);
#655=CIRCLE('',#654,1.08);
#656=EDGE_CURVE('',#650,#650,#655,.T.);
#657=ORIENTED_EDGE('',*,*,#656,.T.);
#658=EDGE_LOOP('',(#657));
#659=FACE_BOUND('',#658,.T.);
#660=ADVANCED_FACE('',(#637,#648,#659),#589,.F.);
#661=CARTESIAN_POINT('',(22.110285573,-4.622057115,0.7874));
#662=DIRECTION('',(0.755689083,-0.654930538,0.));
#663=DIRECTION('',(-0.654930538,-0.755689083,0.));
#664=AXIS2_PLACEMENT_3D('',#661,#662,#663);
#665=PLANE('',#664);
#666=CARTESIAN_POINT('',(22.012699851,-4.734656025,0.7874));
#667=DIRECTION('',(0.,0.,1.));
#668=VECTOR('',#667,0.035);
#669=LINE('',#666,#668);
#670=EDGE_CURVE('',#622,#539,#669,.T.);
#671=ORIENTED_EDGE('',*,*,#670,.T.);
#672=ORIENTED_EDGE('',*,*,#544,.T.);
#673=ORIENTED_EDGE('',*,*,#455,.T.);
#674=ORIENTED_EDGE('',*,*,#634,.F.);
#675=EDGE_LOOP('',(#671,#672,#673,#674));
#676=FACE_BOUND('',#675,.T.);
#677=ADVANCED_FACE('',(#676),#665,.T.);
#678=CARTESIAN_POINT('',(-22.110285573,4.622057115,0.7874));
#679=DIRECTION('',(-0.755689083,0.654930538,0.));
#680=DIRECTION('',(0.654930538,0.755689083,0.));
#681=AXIS2_PLACEMENT_3D('',#678,#679,#680);
#682=PLANE('',#681);
#683=ORIENTED_EDGE('',*,*,#413,.T.);
#684=ORIENTED_EDGE('',*,*,#558,.T.);
#685=ORIENTED_EDGE('',*,*,#497,.T.);
#686=ORIENTED_EDGE('',*,*,#618,.F.);
#687=EDGE_LOOP('',(#683,#684,#685,#686));
#688=FACE_BOUND('',#687,.T.);
#689=ADVANCED_FACE('',(#688),#682,.T.);
#690=CARTESIAN_POINT('',(8.6,0.,0.));
#691=DIRECTION('',(0.,0.,1.));
#692=DIRECTION('',(1.,0.,-0.));
#693=AXIS2_PLACEMENT_3D('',#690,#691,#692);
#694=CYLINDRICAL_SURFACE('',#693,1.08);
#695=CARTESIAN_POINT('',(9.68,0.,0.8224));
#696=DIRECTION('',(-0.,-0.,-1.));
#697=VECTOR('',#696,0.035);
#698=LINE('',#695,#697);
#699=EDGE_CURVE('',#574,#650,#698,.T.);
#700=ORIENTED_EDGE('',*,*,#699,.F.);
#701=ORIENTED_EDGE('',*,*,#580,.F.);
#702=ORIENTED_EDGE('',*,*,#699,.T.);
#703=ORIENTED_EDGE('',*,*,#656,.F.);
#704=EDGE_LOOP('',(#700,#701,#702,#703));
#705=FACE_BOUND('',#704,.T.);
#706=ADVANCED_FACE('',(#705),#694,.F.);
#707=CARTESIAN_POINT('',(0.,8.6,0.));
#708=DIRECTION('',(0.,0.,1.));
#709=DIRECTION('',(1.,0.,-0.));
#710=AXIS2_PLACEMENT_3D('',#707,#708,#709);
#711=CYLINDRICAL_SURFACE('',#710,1.08);
#712=CARTESIAN_POINT('',(1.08,8.6,0.8224));
#713=DIRECTION('',(-0.,-0.,-1.));
#714=VECTOR('',#713,0.035);
#715=LINE('',#712,#714);
#716=EDGE_CURVE('',#563,#639,#715,.T.);
#717=ORIENTED_EDGE('',*,*,#716,.F.);
#718=ORIENTED_EDGE('',*,*,#569,.F.);
#719=ORIENTED_EDGE('',*,*,#716,.T.);
#720=ORIENTED_EDGE('',*,*,#645,.F.);
#721=EDGE_LOOP('',(#717,#718,#719,#720));
#722=FACE_BOUND('',#721,.T.);
#723=ADVANCED_FACE('',(#722),#711,.F.);
#724=CARTESIAN_POINT('',(0.,-26.532342687,0.7874));
#725=DIRECTION('',(0.,-1.,0.));
#726=DIRECTION('',(0.,0.,-1.));
#727=AXIS2_PLACEMENT_3D('',#724,#725,#726);
#728=PLANE('',#727);
#729=CARTESIAN_POINT('',(1.658271418,-26.532342687,0.7874));
#730=DIRECTION('',(0.,0.,1.));
#731=VECTOR('',#730,0.035);
#732=LINE('',#729,#731);
#733=EDGE_CURVE('',#592,#524,#732,.T.);
#734=ORIENTED_EDGE('',*,*,#733,.T.);
#735=ORIENTED_EDGE('',*,*,#529,.T.);
#736=CARTESIAN_POINT('',(-1.658271418,-26.532342687,0.7874));
#737=DIRECTION('',(0.,0.,1.));
#738=VECTOR('',#737,0.035);
#739=LINE('',#736,#738);
#740=EDGE_CURVE('',#600,#516,#739,.T.);
#741=ORIENTED_EDGE('',*,*,#740,.F.);
#742=ORIENTED_EDGE('',*,*,#605,.T.);
#743=EDGE_LOOP('',(#734,#735,#741,#742));
#744=FACE_BOUND('',#743,.T.);
#745=ADVANCED_FACE('',(#744),#728,.T.);
#746=CARTESIAN_POINT('',(-1.658271418,-23.492178421,0.7874));
#747=DIRECTION('',(-1.,0.,0.));
#748=DIRECTION('',(0.,0.,1.));
#749=AXIS2_PLACEMENT_3D('',#746,#747,#748);
#750=PLANE('',#749);
#751=ORIENTED_EDGE('',*,*,#521,.T.);
#752=ORIENTED_EDGE('',*,*,#396,.T.);
#753=ORIENTED_EDGE('',*,*,#611,.T.);
#754=ORIENTED_EDGE('',*,*,#740,.T.);
#755=EDGE_LOOP('',(#751,#752,#753,#754));
#756=FACE_BOUND('',#755,.T.);
#757=ADVANCED_FACE('',(#756),#750,.T.);
#758=CARTESIAN_POINT('',(1.658271418,-23.492178421,0.7874));
#759=DIRECTION('',(1.,0.,0.));
#760=DIRECTION('',(0.,0.,-1.));
#761=AXIS2_PLACEMENT_3D('',#758,#759,#760);
#762=PLANE('',#761);
#763=ORIENTED_EDGE('',*,*,#597,.T.);
#764=ORIENTED_EDGE('',*,*,#438,.T.);
#765=ORIENTED_EDGE('',*,*,#535,.T.);
#766=ORIENTED_EDGE('',*,*,#733,.F.);
#767=EDGE_LOOP('',(#763,#764,#765,#766));
#768=FACE_BOUND('',#767,.T.);
#769=ADVANCED_FACE('',(#768),#762,.T.);
#770=CARTESIAN_POINT('',(0.,0.,0.7874));
#771=DIRECTION('',(0.,0.,1.));
#772=DIRECTION('',(1.,0.,-0.));
#773=AXIS2_PLACEMENT_3D('',#770,#771,#772);
#774=CYLINDRICAL_SURFACE('',#773,22.51612583);
#775=ORIENTED_EDGE('',*,*,#480,.F.);
#776=ORIENTED_EDGE('',*,*,#551,.F.);
#777=ORIENTED_EDGE('',*,*,#670,.F.);
#778=ORIENTED_EDGE('',*,*,#628,.T.);
#779=EDGE_LOOP('',(#775,#776,#777,#778));
#780=FACE_BOUND('',#779,.T.);
#781=ADVANCED_FACE('',(#780),#774,.T.);
#782=CLOSED_SHELL('',(#424,#466,#508,#584,#660,#677,#689,#706,#723,#745,#757,#769,#781));
#783=MANIFOLD_SOLID_BREP('Patch',#782);
#784=DRAUGHTING_PRE_DEFINED_COLOUR('red');
#785=FILL_AREA_STYLE_COLOUR('',#784);
#786=FILL_AREA_STYLE('',(#785));
#787=SURFACE_STYLE_FILL_AREA(#786);
#788=SURFACE_SIDE_STYLE('',(#787));
#789=SURFACE_STYLE_USAGE(.BOTH.,#788);
#790=PRESENTATION_STYLE_ASSIGNMENT((#789));
#382=STYLED_ITEM('',(#790),#783);
#791=DESCRIPTIVE_REPRESENTATION_ITEM('AEDT_MaterialName_V1','copper');
#792=ID_ATTRIBUTE('SA #793',#793);
#793=SHAPE_ASPECT('properties','',#23,.F.);
#794=GEOMETRIC_ITEM_SPECIFIC_USAGE('','properties',#793,#17,#783);
#795=PROPERTY_DEFINITION('AEDT_MaterialName_V1','',#793);
#796=REPRESENTATION('',(#791),#10);
#797=PROPERTY_DEFINITION_REPRESENTATION(#795,#796);
#798=GENERAL_PROPERTY('','AEDT_MaterialName_V1','');
#799=GENERAL_PROPERTY_ASSOCIATION('','',#798,#795);
#800=INTEGER_REPRESENTATION_ITEM('AEDT_BODYFlagGroupColor_V1',0);
#801=INTEGER_REPRESENTATION_ITEM('AEDT_BODYFlagGroupColor_V1',-1);
#802=INTEGER_REPRESENTATION_ITEM('AEDT_BODYFlagGroupColor_V1',-2130771968);
#803=INTEGER_REPRESENTATION_ITEM('AEDT_BODYFlagGroupColor_V1',5);
#804=PROPERTY_DEFINITION('AEDT_BODYFlagGroupColor_V1','',#793);
#805=REPRESENTATION('',(#800,#801,#802,#803),#10);
#806=PROPERTY_DEFINITION_REPRESENTATION(#804,#805);
#807=GENERAL_PROPERTY('','AEDT_BODYFlagGroupColor_V1','');
#808=GENERAL_PROPERTY_ASSOCIATION('','',#807,#804);
#809=DESCRIPTIVE_REPRESENTATION_ITEM('AEDT_EntityName_V1','Patch');
#810=PROPERTY_DEFINITION('AEDT_EntityName_V1','',#793);
#811=REPRESENTATION('',(#809),#10);
#812=PROPERTY_DEFINITION_REPRESENTATION(#810,#811);
#813=GENERAL_PROPERTY('','AEDT_EntityName_V1','');
#814=GENERAL_PROPERTY_ASSOCIATION('','',#813,#810);
#816=CARTESIAN_POINT('',(8.6,0.,-21.7));
#817=DIRECTION('',(0.,0.,-1.));
#818=DIRECTION('',(-1.,0.,0.));
#819=AXIS2_PLACEMENT_3D('',#816,#817,#818);
#820=PLANE('',#819);
#821=CARTESIAN_POINT('',(12.2,-0.,-21.7));
#822=VERTEX_POINT('',#821);
#823=CARTESIAN_POINT('',(8.6,0.,-21.7));
#824=DIRECTION('',(0.,0.,1.));
#825=DIRECTION('',(1.,0.,-0.));
#826=AXIS2_PLACEMENT_3D('',#823,#824,#825);
#827=CIRCLE('',#826,3.6);
#828=EDGE_CURVE('',#822,#822,#827,.T.);
#829=ORIENTED_EDGE('',*,*,#828,.F.);
#830=EDGE_LOOP('',(#829));
#831=FACE_BOUND('',#830,.T.);
#832=ADVANCED_FACE('',(#831),#820,.T.);
#833=CARTESIAN_POINT('',(8.6,0.,0.));
#834=DIRECTION('',(0.,0.,1.));
#835=DIRECTION('',(1.,0.,0.));
#836=AXIS2_PLACEMENT_3D('',#833,#834,#835);
#837=PLANE('',#836);
#838=CARTESIAN_POINT('',(12.2,0.,0.));
#839=VERTEX_POINT('',#838);
#840=CARTESIAN_POINT('',(8.6,0.,0.));
#841=DIRECTION('',(0.,0.,-1.));
#842=DIRECTION('',(1.,0.,0.));
#843=AXIS2_PLACEMENT_3D('',#840,#841,#842);
#844=CIRCLE('',#843,3.6);
#845=EDGE_CURVE('',#839,#839,#844,.T.);
#846=ORIENTED_EDGE('',*,*,#845,.F.);
#847=EDGE_LOOP('',(#846));
#848=FACE_BOUND('',#847,.T.);
#849=ADVANCED_FACE('',(#848),#837,.T.);
#850=CARTESIAN_POINT('',(8.6,0.,0.));
#851=DIRECTION('',(0.,0.,-1.));
#852=DIRECTION('',(1.,0.,0.));
#853=AXIS2_PLACEMENT_3D('',#850,#851,#852);
#854=CYLINDRICAL_SURFACE('',#853,3.6);
#855=CARTESIAN_POINT('',(12.2,0.,-21.7));
#856=DIRECTION('',(-0.,-0.,1.));
#857=VECTOR('',#856,21.7);
#858=LINE('',#855,#857);
#859=EDGE_CURVE('',#822,#839,#858,.T.);
#860=ORIENTED_EDGE('',*,*,#859,.T.);
#861=ORIENTED_EDGE('',*,*,#845,.T.);
#862=ORIENTED_EDGE('',*,*,#859,.F.);
#863=ORIENTED_EDGE('',*,*,#828,.T.);
#864=EDGE_LOOP('',(#860,#861,#862,#863));
#865=FACE_BOUND('',#864,.T.);
#866=ADVANCED_FACE('',(#865),#854,.T.);
#867=CLOSED_SHELL('',(#832,#849,#866));
#868=MANIFOLD_SOLID_BREP('Coax',#867);
#869=COLOUR_RGB('',0.56078434,0.686274529,0.56078434);
#870=FILL_AREA_STYLE_COLOUR('',#869);
#871=FILL_AREA_STYLE('',(#870));
#872=SURFACE_STYLE_FILL_AREA(#871);
#873=SURFACE_SIDE_STYLE('',(#872));
#874=SURFACE_STYLE_USAGE(.BOTH.,#873);
#875=PRESENTATION_STYLE_ASSIGNMENT((#874));
#815=STYLED_ITEM('',(#875),#868);
#876=DESCRIPTIVE_REPRESENTATION_ITEM('AEDT_MaterialName_V1','Teflon (tm)');
#877=ID_ATTRIBUTE('SA #878',#878);
#878=SHAPE_ASPECT('properties','',#23,.F.);
#879=GEOMETRIC_ITEM_SPECIFIC_USAGE('','properties',#878,#17,#868);
#880=PROPERTY_DEFINITION('AEDT_MaterialName_V1','',#878);
#881=REPRESENTATION('',(#876),#10);
#882=PROPERTY_DEFINITION_REPRESENTATION(#880,#881);
#883=GENERAL_PROPERTY('','AEDT_MaterialName_V1','');
#884=GENERAL_PROPERTY_ASSOCIATION('','',#883,#880);
#885=INTEGER_REPRESENTATION_ITEM('AEDT_BODYFlagGroupColor_V1',0);
#886=INTEGER_REPRESENTATION_ITEM('AEDT_BODYFlagGroupColor_V1',-1);
#887=INTEGER_REPRESENTATION_ITEM('AEDT_BODYFlagGroupColor_V1',-2138067057);
#888=INTEGER_REPRESENTATION_ITEM('AEDT_BODYFlagGroupColor_V1',5);
#889=PROPERTY_DEFINITION('AEDT_BODYFlagGroupColor_V1','',#878);
#890=REPRESENTATION('',(#885,#886,#887,#888),#10);
#891=PROPERTY_DEFINITION_REPRESENTATION(#889,#890);
#892=GENERAL_PROPERTY('','AEDT_BODYFlagGroupColor_V1','');
#893=GENERAL_PROPERTY_ASSOCIATION('','',#892,#889);
#894=DESCRIPTIVE_REPRESENTATION_ITEM('AEDT_EntityName_V1','Coax');
#895=PROPERTY_DEFINITION('AEDT_EntityName_V1','',#878);
#896=REPRESENTATION('',(#894),#10);
#897=PROPERTY_DEFINITION_REPRESENTATION(#895,#896);
#898=GENERAL_PROPERTY('','AEDT_EntityName_V1','');
#899=GENERAL_PROPERTY_ASSOCIATION('','',#898,#895);
#901=CARTESIAN_POINT('',(8.6,0.,-21.7));
#902=DIRECTION('',(0.,0.,-1.));
#903=DIRECTION('',(-1.,0.,0.));
#904=AXIS2_PLACEMENT_3D('',#901,#902,#903);
#905=PLANE('',#904);
#906=CARTESIAN_POINT('',(9.68,-0.,-21.7));
#907=VERTEX_POINT('',#906);
#908=CARTESIAN_POINT('',(8.6,0.,-21.7));
#909=DIRECTION('',(0.,0.,1.));
#910=DIRECTION('',(1.,0.,-0.));
#911=AXIS2_PLACEMENT_3D('',#908,#909,#910);
#912=CIRCLE('',#911,1.08);
#913=EDGE_CURVE('',#907,#907,#912,.T.);
#914=ORIENTED_EDGE('',*,*,#913,.F.);
#915=EDGE_LOOP('',(#914));
#916=FACE_BOUND('',#915,.T.);
#917=ADVANCED_FACE('',(#916),#905,.T.);
#918=CARTESIAN_POINT('',(8.6,0.,0.));
#919=DIRECTION('',(0.,0.,1.));
#920=DIRECTION('',(1.,0.,0.));
#921=AXIS2_PLACEMENT_3D('',#918,#919,#920);
#922=PLANE('',#921);
#923=CARTESIAN_POINT('',(9.68,0.,0.));
#924=VERTEX_POINT('',#923);
#925=CARTESIAN_POINT('',(8.6,0.,0.));
#926=DIRECTION('',(0.,0.,-1.));
#927=DIRECTION('',(1.,0.,0.));
#928=AXIS2_PLACEMENT_3D('',#925,#926,#927);
#929=CIRCLE('',#928,1.08);
#930=EDGE_CURVE('',#924,#924,#929,.T.);
#931=ORIENTED_EDGE('',*,*,#930,.F.);
#932=EDGE_LOOP('',(#931));
#933=FACE_BOUND('',#932,.T.);
#934=ADVANCED_FACE('',(#933),#922,.T.);
#935=CARTESIAN_POINT('',(8.6,0.,0.));
#936=DIRECTION('',(0.,0.,-1.));
#937=DIRECTION('',(1.,0.,0.));
#938=AXIS2_PLACEMENT_3D('',#935,#936,#937);
#939=CYLINDRICAL_SURFACE('',#938,1.08);
#940=CARTESIAN_POINT('',(9.68,0.,-21.7));
#941=DIRECTION('',(-0.,-0.,1.));
#942=VECTOR('',#941,21.7);
#943=LINE('',#940,#942);
#944=EDGE_CURVE('',#907,#924,#943,.T.);
#945=ORIENTED_EDGE('',*,*,#944,.T.);
#946=ORIENTED_EDGE('',*,*,#930,.T.);
#947=ORIENTED_EDGE('',*,*,#944,.F.);
#948=ORIENTED_EDGE('',*,*,#913,.T.);
#949=EDGE_LOOP('',(#945,#946,#947,#948));
#950=FACE_BOUND('',#949,.T.);
#951=ADVANCED_FACE('',(#950),#939,.T.);
#952=CLOSED_SHELL('',(#917,#934,#951));
#953=MANIFOLD_SOLID_BREP('CoaxPin',#952);
#954=DRAUGHTING_PRE_DEFINED_COLOUR('yellow');
#955=FILL_AREA_STYLE_COLOUR('',#954);
#956=FILL_AREA_STYLE('',(#955));
#957=SURFACE_STYLE_FILL_AREA(#956);
#958=SURFACE_SIDE_STYLE('',(#957));
#959=SURFACE_STYLE_USAGE(.BOTH.,#958);
#960=PRESENTATION_STYLE_ASSIGNMENT((#959));
#900=STYLED_ITEM('',(#960),#953);
#961=DESCRIPTIVE_REPRESENTATION_ITEM('AEDT_MaterialName_V1','copper');
#962=ID_ATTRIBUTE('SA #963',#963);
#963=SHAPE_ASPECT('properties','',#23,.F.);
#964=GEOMETRIC_ITEM_SPECIFIC_USAGE('','properties',#963,#17,#953);
#965=PROPERTY_DEFINITION('AEDT_MaterialName_V1','',#963);
#966=REPRESENTATION('',(#961),#10);
#967=PROPERTY_DEFINITION_REPRESENTATION(#965,#966);
#968=GENERAL_PROPERTY('','AEDT_MaterialName_V1','');
#969=GENERAL_PROPERTY_ASSOCIATION('','',#968,#965);
#970=INTEGER_REPRESENTATION_ITEM('AEDT_BODYFlagGroupColor_V1',0);
#971=INTEGER_REPRESENTATION_ITEM('AEDT_BODYFlagGroupColor_V1',-1);
#972=INTEGER_REPRESENTATION_ITEM('AEDT_BODYFlagGroupColor_V1',-2130706688);
#973=INTEGER_REPRESENTATION_ITEM('AEDT_BODYFlagGroupColor_V1',5);
#974=PROPERTY_DEFINITION('AEDT_BODYFlagGroupColor_V1','',#963);
#975=REPRESENTATION('',(#970,#971,#972,#973),#10);
#976=PROPERTY_DEFINITION_REPRESENTATION(#974,#975);
#977=GENERAL_PROPERTY('','AEDT_BODYFlagGroupColor_V1','');
#978=GENERAL_PROPERTY_ASSOCIATION('','',#977,#974);
#979=DESCRIPTIVE_REPRESENTATION_ITEM('AEDT_EntityName_V1','CoaxPin');
#980=PROPERTY_DEFINITION('AEDT_EntityName_V1','',#963);
#981=REPRESENTATION('',(#979),#10);
#982=PROPERTY_DEFINITION_REPRESENTATION(#980,#981);
#983=GENERAL_PROPERTY('','AEDT_EntityName_V1','');
#984=GENERAL_PROPERTY_ASSOCIATION('','',#983,#980);
#986=CARTESIAN_POINT('',(8.6,0.,-21.8575));
#987=DIRECTION('',(0.,0.,-1.));
#988=DIRECTION('',(-1.,0.,0.));
#989=AXIS2_PLACEMENT_3D('',#986,#987,#988);
#990=PLANE('',#989);
#991=CARTESIAN_POINT('',(12.2,-0.,-21.8575));
#992=VERTEX_POINT('',#991);
#993=CARTESIAN_POINT('',(8.6,0.,-21.8575));
#994=DIRECTION('',(0.,0.,1.));
#995=DIRECTION('',(1.,0.,-0.));
#996=AXIS2_PLACEMENT_3D('',#993,#994,#995);
#997=CIRCLE('',#996,3.6);
#998=EDGE_CURVE('',#992,#992,#997,.T.);
#999=ORIENTED_EDGE('',*,*,#998,.F.);
#1000=EDGE_LOOP('',(#999));
#1001=FACE_BOUND('',#1000,.T.);
#1002=ADVANCED_FACE('',(#1001),#990,.T.);
#1003=CARTESIAN_POINT('',(8.6,0.,-21.7));
#1004=DIRECTION('',(0.,0.,1.));
#1005=DIRECTION('',(1.,0.,0.));
#1006=AXIS2_PLACEMENT_3D('',#1003,#1004,#1005);
#1007=PLANE('',#1006);
#1008=CARTESIAN_POINT('',(12.2,0.,-21.7));
#1009=VERTEX_POINT('',#1008);
#1010=CARTESIAN_POINT('',(8.6,0.,-21.7));
#1011=DIRECTION('',(0.,0.,-1.));
#1012=DIRECTION('',(1.,0.,0.));
#1013=AXIS2_PLACEMENT_3D('',#1010,#1011,#1012);
#1014=CIRCLE('',#1013,3.6);
#1015=EDGE_CURVE('',#1009,#1009,#1014,.T.);
#1016=ORIENTED_EDGE('',*,*,#1015,.F.);
#1017=EDGE_LOOP('',(#1016));
#1018=FACE_BOUND('',#1017,.T.);
#1019=ADVANCED_FACE('',(#1018),#1007,.T.);
#1020=CARTESIAN_POINT('',(8.6,0.,-21.7));
#1021=DIRECTION('',(0.,0.,-1.));
#1022=DIRECTION('',(1.,0.,0.));
#1023=AXIS2_PLACEMENT_3D('',#1020,#1021,#1022);
#1024=CYLINDRICAL_SURFACE('',#1023,3.6);
#1025=CARTESIAN_POINT('',(12.2,0.,-21.8575));
#1026=DIRECTION('',(-0.,-0.,1.));
#1027=VECTOR('',#1026,0.1575);
#1028=LINE('',#1025,#1027);
#1029=EDGE_CURVE('',#992,#1009,#1028,.T.);
#1030=ORIENTED_EDGE('',*,*,#1029,.T.);
#1031=ORIENTED_EDGE('',*,*,#1015,.T.);
#1032=ORIENTED_EDGE('',*,*,#1029,.F.);
#1033=ORIENTED_EDGE('',*,*,#998,.T.);
#1034=EDGE_LOOP('',(#1030,#1031,#1032,#1033));
#1035=FACE_BOUND('',#1034,.T.);
#1036=ADVANCED_FACE('',(#1035),#1024,.T.);
#1037=CLOSED_SHELL('',(#1002,#1019,#1036));
#1038=MANIFOLD_SOLID_BREP('PortCap',#1037);
#985=STYLED_ITEM('',(#875),#1038);
#1039=DESCRIPTIVE_REPRESENTATION_ITEM('AEDT_MaterialName_V1','copper');
#1040=ID_ATTRIBUTE('SA #1041',#1041);
#1041=SHAPE_ASPECT('properties','',#23,.F.);
#1042=GEOMETRIC_ITEM_SPECIFIC_USAGE('','properties',#1041,#17,#1038);
#1043=PROPERTY_DEFINITION('AEDT_MaterialName_V1','',#1041);
#1044=REPRESENTATION('',(#1039),#10);
#1045=PROPERTY_DEFINITION_REPRESENTATION(#1043,#1044);
#1046=GENERAL_PROPERTY('','AEDT_MaterialName_V1','');
#1047=GENERAL_PROPERTY_ASSOCIATION('','',#1046,#1043);
#1048=INTEGER_REPRESENTATION_ITEM('AEDT_BODYFlagGroupColor_V1',0);
#1049=INTEGER_REPRESENTATION_ITEM('AEDT_BODYFlagGroupColor_V1',-1);
#1050=INTEGER_REPRESENTATION_ITEM('AEDT_BODYFlagGroupColor_V1',-2138067057);
#1051=INTEGER_REPRESENTATION_ITEM('AEDT_BODYFlagGroupColor_V1',5);
#1052=PROPERTY_DEFINITION('AEDT_BODYFlagGroupColor_V1','',#1041);
#1053=REPRESENTATION('',(#1048,#1049,#1050,#1051),#10);
#1054=PROPERTY_DEFINITION_REPRESENTATION(#1052,#1053);
#1055=GENERAL_PROPERTY('','AEDT_BODYFlagGroupColor_V1','');
#1056=GENERAL_PROPERTY_ASSOCIATION('','',#1055,#1052);
#1057=DESCRIPTIVE_REPRESENTATION_ITEM('AEDT_EntityName_V1','PortCap');
#1058=PROPERTY_DEFINITION('AEDT_EntityName_V1','',#1041);
#1059=REPRESENTATION('',(#1057),#10);
#1060=PROPERTY_DEFINITION_REPRESENTATION(#1058,#1059);
#1061=GENERAL_PROPERTY('','AEDT_EntityName_V1','');
#1062=GENERAL_PROPERTY_ASSOCIATION('','',#1061,#1058);
#1064=CARTESIAN_POINT('',(8.6,0.,0.8224));
#1065=DIRECTION('',(0.,0.,1.));
#1066=DIRECTION('',(1.,0.,0.));
#1067=AXIS2_PLACEMENT_3D('',#1064,#1065,#1066);
#1068=PLANE('',#1067);
#1069=CARTESIAN_POINT('',(9.68,0.,0.8224));
#1070=VERTEX_POINT('',#1069);
#1071=CARTESIAN_POINT('',(8.6,0.,0.8224));
#1072=DIRECTION('',(0.,0.,-1.));
#1073=DIRECTION('',(1.,0.,0.));
#1074=AXIS2_PLACEMENT_3D('',#1071,#1072,#1073);
#1075=CIRCLE('',#1074,1.08);
#1076=EDGE_CURVE('',#1070,#1070,#1075,.T.);
#1077=ORIENTED_EDGE('',*,*,#1076,.F.);
#1078=EDGE_LOOP('',(#1077));
#1079=FACE_BOUND('',#1078,.T.);
#1080=ADVANCED_FACE('',(#1079),#1068,.T.);
#1081=CARTESIAN_POINT('',(8.6,0.,0.));
#1082=DIRECTION('',(0.,0.,-1.));
#1083=DIRECTION('',(-1.,0.,0.));
#1084=AXIS2_PLACEMENT_3D('',#1081,#1082,#1083);
#1085=PLANE('',#1084);
#1086=CARTESIAN_POINT('',(9.68,-0.,0.));
#1087=VERTEX_POINT('',#1086);
#1088=CARTESIAN_POINT('',(8.6,0.,0.));
#1089=DIRECTION('',(0.,0.,1.));
#1090=DIRECTION('',(1.,0.,-0.));
#1091=AXIS2_PLACEMENT_3D('',#1088,#1089,#1090);
#1092=CIRCLE('',#1091,1.08);
#1093=EDGE_CURVE('',#1087,#1087,#1092,.T.);
#1094=ORIENTED_EDGE('',*,*,#1093,.F.);
#1095=EDGE_LOOP('',(#1094));
#1096=FACE_BOUND('',#1095,.T.);
#1097=ADVANCED_FACE('',(#1096),#1085,.T.);
#1098=CARTESIAN_POINT('',(8.6,0.,0.));
#1099=DIRECTION('',(0.,0.,1.));
#1100=DIRECTION('',(1.,0.,-0.));
#1101=AXIS2_PLACEMENT_3D('',#1098,#1099,#1100);
#1102=CYLINDRICAL_SURFACE('',#1101,1.08);
#1103=CARTESIAN_POINT('',(9.68,0.,0.8224));
#1104=DIRECTION('',(-0.,-0.,-1.));
#1105=VECTOR('',#1104,0.8224);
#1106=LINE('',#1103,#1105);
#1107=EDGE_CURVE('',#1070,#1087,#1106,.T.);
#1108=ORIENTED_EDGE('',*,*,#1107,.T.);
#1109=ORIENTED_EDGE('',*,*,#1093,.T.);
#1110=ORIENTED_EDGE('',*,*,#1107,.F.);
#1111=ORIENTED_EDGE('',*,*,#1076,.T.);
#1112=EDGE_LOOP('',(#1108,#1109,#1110,#1111));
#1113=FACE_BOUND('',#1112,.T.);
#1114=ADVANCED_FACE('',(#1113),#1102,.T.);
#1115=CLOSED_SHELL('',(#1080,#1097,#1114));
#1116=MANIFOLD_SOLID_BREP('FeedP',#1115);
#1063=STYLED_ITEM('',(#960),#1116);
#1117=DESCRIPTIVE_REPRESENTATION_ITEM('AEDT_MaterialName_V1','copper');
#1118=ID_ATTRIBUTE('SA #1119',#1119);
#1119=SHAPE_ASPECT('properties','',#23,.F.);
#1120=GEOMETRIC_ITEM_SPECIFIC_USAGE('','properties',#1119,#17,#1116);
#1121=PROPERTY_DEFINITION('AEDT_MaterialName_V1','',#1119);
#1122=REPRESENTATION('',(#1117),#10);
#1123=PROPERTY_DEFINITION_REPRESENTATION(#1121,#1122);
#1124=GENERAL_PROPERTY('','AEDT_MaterialName_V1','');
#1125=GENERAL_PROPERTY_ASSOCIATION('','',#1124,#1121);
#1126=INTEGER_REPRESENTATION_ITEM('AEDT_BODYFlagGroupColor_V1',0);
#1127=INTEGER_REPRESENTATION_ITEM('AEDT_BODYFlagGroupColor_V1',-1);
#1128=INTEGER_REPRESENTATION_ITEM('AEDT_BODYFlagGroupColor_V1',-2130706688);
#1129=INTEGER_REPRESENTATION_ITEM('AEDT_BODYFlagGroupColor_V1',5);
#1130=PROPERTY_DEFINITION('AEDT_BODYFlagGroupColor_V1','',#1119);
#1131=REPRESENTATION('',(#1126,#1127,#1128,#1129),#10);
#1132=PROPERTY_DEFINITION_REPRESENTATION(#1130,#1131);
#1133=GENERAL_PROPERTY('','AEDT_BODYFlagGroupColor_V1','');
#1134=GENERAL_PROPERTY_ASSOCIATION('','',#1133,#1130);
#1135=DESCRIPTIVE_REPRESENTATION_ITEM('AEDT_EntityName_V1','FeedP');
#1136=PROPERTY_DEFINITION('AEDT_EntityName_V1','',#1119);
#1137=REPRESENTATION('',(#1135),#10);
#1138=PROPERTY_DEFINITION_REPRESENTATION(#1136,#1137);
#1139=GENERAL_PROPERTY('','AEDT_EntityName_V1','');
#1140=GENERAL_PROPERTY_ASSOCIATION('','',#1139,#1136);
#1142=CARTESIAN_POINT('',(8.6,0.,-21.8575));
#1143=DIRECTION('',(0.,0.,1.));
#1144=DIRECTION('',(1.,0.,0.));
#1145=AXIS2_PLACEMENT_3D('',#1142,#1143,#1144);
#1146=PLANE('',#1145);
#1147=CARTESIAN_POINT('',(12.2,-0.,-21.8575));
#1148=VERTEX_POINT('',#1147);
#1149=CARTESIAN_POINT('',(8.6,0.,-21.8575));
#1150=DIRECTION('',(0.,0.,1.));
#1151=DIRECTION('',(1.,0.,-0.));
#1152=AXIS2_PLACEMENT_3D('',#1149,#1150,#1151);
#1153=CIRCLE('',#1152,3.6);
#1154=EDGE_CURVE('',#1148,#1148,#1153,.T.);
#1155=ORIENTED_EDGE('',*,*,#1154,.T.);
#1156=EDGE_LOOP('',(#1155));
#1157=FACE_BOUND('',#1156,.T.);
#1158=ADVANCED_FACE('',(#1157),#1146,.T.);
#1159=OPEN_SHELL('',(#1158));
#1160=SHELL_BASED_SURFACE_MODEL('Port2',(#1159));
#1141=STYLED_ITEM('',(#875),#1160);
#1161=DESCRIPTIVE_REPRESENTATION_ITEM('AEDT_MaterialName_V1','vacuum');
#1162=ID_ATTRIBUTE('SA #1163',#1163);
#1163=SHAPE_ASPECT('properties','',#23,.F.);
#1164=GEOMETRIC_ITEM_SPECIFIC_USAGE('','properties',#1163,#21,#1160);
#1165=PROPERTY_DEFINITION('AEDT_MaterialName_V1','',#1163);
#1166=REPRESENTATION('',(#1161),#10);
#1167=PROPERTY_DEFINITION_REPRESENTATION(#1165,#1166);
#1168=GENERAL_PROPERTY('','AEDT_MaterialName_V1','');
#1169=GENERAL_PROPERTY_ASSOCIATION('','',#1168,#1165);
#1170=INTEGER_REPRESENTATION_ITEM('AEDT_BODYFlagGroupColor_V1',0);
#1171=INTEGER_REPRESENTATION_ITEM('AEDT_BODYFlagGroupColor_V1',-1);
#1172=INTEGER_REPRESENTATION_ITEM('AEDT_BODYFlagGroupColor_V1',-2138067057);
#1173=INTEGER_REPRESENTATION_ITEM('AEDT_BODYFlagGroupColor_V1',5);
#1174=PROPERTY_DEFINITION('AEDT_BODYFlagGroupColor_V1','',#1163);
#1175=REPRESENTATION('',(#1170,#1171,#1172,#1173),#10);
#1176=PROPERTY_DEFINITION_REPRESENTATION(#1174,#1175);
#1177=GENERAL_PROPERTY('','AEDT_BODYFlagGroupColor_V1','');
#1178=GENERAL_PROPERTY_ASSOCIATION('','',#1177,#1174);
#1179=DESCRIPTIVE_REPRESENTATION_ITEM('AEDT_EntityName_V1','Port2');
#1180=PROPERTY_DEFINITION('AEDT_EntityName_V1','',#1163);
#1181=REPRESENTATION('',(#1179),#10);
#1182=PROPERTY_DEFINITION_REPRESENTATION(#1180,#1181);
#1183=GENERAL_PROPERTY('','AEDT_EntityName_V1','');
#1184=GENERAL_PROPERTY_ASSOCIATION('','',#1183,#1180);
#1186=CARTESIAN_POINT('',(0.,8.6,-21.7));
#1187=DIRECTION('',(0.,0.,-1.));
#1188=DIRECTION('',(-1.,0.,0.));
#1189=AXIS2_PLACEMENT_3D('',#1186,#1187,#1188);
#1190=PLANE('',#1189);
#1191=CARTESIAN_POINT('',(3.6,8.6,-21.7));
#1192=VERTEX_POINT('',#1191);
#1193=CARTESIAN_POINT('',(0.,8.6,-21.7));
#1194=DIRECTION('',(0.,0.,1.));
#1195=DIRECTION('',(1.,0.,-0.));
#1196=AXIS2_PLACEMENT_3D('',#1193,#1194,#1195);
#1197=CIRCLE('',#1196,3.6);
#1198=EDGE_CURVE('',#1192,#1192,#1197,.T.);
#1199=ORIENTED_EDGE('',*,*,#1198,.F.);
#1200=EDGE_LOOP('',(#1199));
#1201=FACE_BOUND('',#1200,.T.);
#1202=ADVANCED_FACE('',(#1201),#1190,.T.);
#1203=CARTESIAN_POINT('',(0.,8.6,0.));
#1204=DIRECTION('',(0.,0.,1.));
#1205=DIRECTION('',(1.,0.,0.));
#1206=AXIS2_PLACEMENT_3D('',#1203,#1204,#1205);
#1207=PLANE('',#1206);
#1208=CARTESIAN_POINT('',(3.6,8.6,0.));
#1209=VERTEX_POINT('',#1208);
#1210=CARTESIAN_POINT('',(0.,8.6,0.));
#1211=DIRECTION('',(0.,0.,-1.));
#1212=DIRECTION('',(1.,0.,0.));
#1213=AXIS2_PLACEMENT_3D('',#1210,#1211,#1212);
#1214=CIRCLE('',#1213,3.6);
#1215=EDGE_CURVE('',#1209,#1209,#1214,.T.);
#1216=ORIENTED_EDGE('',*,*,#1215,.F.);
#1217=EDGE_LOOP('',(#1216));
#1218=FACE_BOUND('',#1217,.T.);
#1219=ADVANCED_FACE('',(#1218),#1207,.T.);
#1220=CARTESIAN_POINT('',(0.,8.6,0.));
#1221=DIRECTION('',(0.,0.,-1.));
#1222=DIRECTION('',(1.,0.,0.));
#1223=AXIS2_PLACEMENT_3D('',#1220,#1221,#1222);
#1224=CYLINDRICAL_SURFACE('',#1223,3.6);
#1225=CARTESIAN_POINT('',(3.6,8.6,-21.7));
#1226=DIRECTION('',(-0.,-0.,1.));
#1227=VECTOR('',#1226,21.7);
#1228=LINE('',#1225,#1227);
#1229=EDGE_CURVE('',#1192,#1209,#1228,.T.);
#1230=ORIENTED_EDGE('',*,*,#1229,.T.);
#1231=ORIENTED_EDGE('',*,*,#1215,.T.);
#1232=ORIENTED_EDGE('',*,*,#1229,.F.);
#1233=ORIENTED_EDGE('',*,*,#1198,.T.);
#1234=EDGE_LOOP('',(#1230,#1231,#1232,#1233));
#1235=FACE_BOUND('',#1234,.T.);
#1236=ADVANCED_FACE('',(#1235),#1224,.T.);
#1237=CLOSED_SHELL('',(#1202,#1219,#1236));
#1238=MANIFOLD_SOLID_BREP('Coax1',#1237);
#1185=STYLED_ITEM('',(#875),#1238);
#1239=DESCRIPTIVE_REPRESENTATION_ITEM('AEDT_MaterialName_V1','Teflon (tm)');
#1240=ID_ATTRIBUTE('SA #1241',#1241);
#1241=SHAPE_ASPECT('properties','',#23,.F.);
#1242=GEOMETRIC_ITEM_SPECIFIC_USAGE('','properties',#1241,#17,#1238);
#1243=PROPERTY_DEFINITION('AEDT_MaterialName_V1','',#1241);
#1244=REPRESENTATION('',(#1239),#10);
#1245=PROPERTY_DEFINITION_REPRESENTATION(#1243,#1244);
#1246=GENERAL_PROPERTY('','AEDT_MaterialName_V1','');
#1247=GENERAL_PROPERTY_ASSOCIATION('','',#1246,#1243);
#1248=INTEGER_REPRESENTATION_ITEM('AEDT_BODYFlagGroupColor_V1',0);
#1249=INTEGER_REPRESENTATION_ITEM('AEDT_BODYFlagGroupColor_V1',-1);
#1250=INTEGER_REPRESENTATION_ITEM('AEDT_BODYFlagGroupColor_V1',-2138067057);
#1251=INTEGER_REPRESENTATION_ITEM('AEDT_BODYFlagGroupColor_V1',5);
#1252=PROPERTY_DEFINITION('AEDT_BODYFlagGroupColor_V1','',#1241);
#1253=REPRESENTATION('',(#1248,#1249,#1250,#1251),#10);
#1254=PROPERTY_DEFINITION_REPRESENTATION(#1252,#1253);
#1255=GENERAL_PROPERTY('','AEDT_BODYFlagGroupColor_V1','');
#1256=GENERAL_PROPERTY_ASSOCIATION('','',#1255,#1252);
#1257=DESCRIPTIVE_REPRESENTATION_ITEM('AEDT_EntityName_V1','Coax1');
#1258=PROPERTY_DEFINITION('AEDT_EntityName_V1','',#1241);
#1259=REPRESENTATION('',(#1257),#10);
#1260=PROPERTY_DEFINITION_REPRESENTATION(#1258,#1259);
#1261=GENERAL_PROPERTY('','AEDT_EntityName_V1','');
#1262=GENERAL_PROPERTY_ASSOCIATION('','',#1261,#1258);
#1264=CARTESIAN_POINT('',(0.,8.6,-21.7));
#1265=DIRECTION('',(0.,0.,-1.));
#1266=DIRECTION('',(-1.,0.,0.));
#1267=AXIS2_PLACEMENT_3D('',#1264,#1265,#1266);
#1268=PLANE('',#1267);
#1269=CARTESIAN_POINT('',(1.08,8.6,-21.7));
#1270=VERTEX_POINT('',#1269);
#1271=CARTESIAN_POINT('',(0.,8.6,-21.7));
#1272=DIRECTION('',(0.,0.,1.));
#1273=DIRECTION('',(1.,0.,-0.));
#1274=AXIS2_PLACEMENT_3D('',#1271,#1272,#1273);
#1275=CIRCLE('',#1274,1.08);
#1276=EDGE_CURVE('',#1270,#1270,#1275,.T.);
#1277=ORIENTED_EDGE('',*,*,#1276,.F.);
#1278=EDGE_LOOP('',(#1277));
#1279=FACE_BOUND('',#1278,.T.);
#1280=ADVANCED_FACE('',(#1279),#1268,.T.);
#1281=CARTESIAN_POINT('',(0.,8.6,0.));
#1282=DIRECTION('',(0.,0.,1.));
#1283=DIRECTION('',(1.,0.,0.));
#1284=AXIS2_PLACEMENT_3D('',#1281,#1282,#1283);
#1285=PLANE('',#1284);
#1286=CARTESIAN_POINT('',(1.08,8.6,0.));
#1287=VERTEX_POINT('',#1286);
#1288=CARTESIAN_POINT('',(0.,8.6,0.));
#1289=DIRECTION('',(0.,0.,-1.));
#1290=DIRECTION('',(1.,0.,0.));
#1291=AXIS2_PLACEMENT_3D('',#1288,#1289,#1290);
#1292=CIRCLE('',#1291,1.08);
#1293=EDGE_CURVE('',#1287,#1287,#1292,.T.);
#1294=ORIENTED_EDGE('',*,*,#1293,.F.);
#1295=EDGE_LOOP('',(#1294));
#1296=FACE_BOUND('',#1295,.T.);
#1297=ADVANCED_FACE('',(#1296),#1285,.T.);
#1298=CARTESIAN_POINT('',(0.,8.6,0.));
#1299=DIRECTION('',(0.,0.,-1.));
#1300=DIRECTION('',(1.,0.,0.));
#1301=AXIS2_PLACEMENT_3D('',#1298,#1299,#1300);
#1302=CYLINDRICAL_SURFACE('',#1301,1.08);
#1303=CARTESIAN_POINT('',(1.08,8.6,-21.7));
#1304=DIRECTION('',(-0.,-0.,1.));
#1305=VECTOR('',#1304,21.7);
#1306=LINE('',#1303,#1305);
#1307=EDGE_CURVE('',#1270,#1287,#1306,.T.);
#1308=ORIENTED_EDGE('',*,*,#1307,.T.);
#1309=ORIENTED_EDGE('',*,*,#1293,.T.);
#1310=ORIENTED_EDGE('',*,*,#1307,.F.);
#1311=ORIENTED_EDGE('',*,*,#1276,.T.);
#1312=EDGE_LOOP('',(#1308,#1309,#1310,#1311));
#1313=FACE_BOUND('',#1312,.T.);
#1314=ADVANCED_FACE('',(#1313),#1302,.T.);
#1315=CLOSED_SHELL('',(#1280,#1297,#1314));
#1316=MANIFOLD_SOLID_BREP('CoaxPin1',#1315);
#1263=STYLED_ITEM('',(#960),#1316);
#1317=DESCRIPTIVE_REPRESENTATION_ITEM('AEDT_MaterialName_V1','copper');
#1318=ID_ATTRIBUTE('SA #1319',#1319);
#1319=SHAPE_ASPECT('properties','',#23,.F.);
#1320=GEOMETRIC_ITEM_SPECIFIC_USAGE('','properties',#1319,#17,#1316);
#1321=PROPERTY_DEFINITION('AEDT_MaterialName_V1','',#1319);
#1322=REPRESENTATION('',(#1317),#10);
#1323=PROPERTY_DEFINITION_REPRESENTATION(#1321,#1322);
#1324=GENERAL_PROPERTY('','AEDT_MaterialName_V1','');
#1325=GENERAL_PROPERTY_ASSOCIATION('','',#1324,#1321);
#1326=INTEGER_REPRESENTATION_ITEM('AEDT_BODYFlagGroupColor_V1',0);
#1327=INTEGER_REPRESENTATION_ITEM('AEDT_BODYFlagGroupColor_V1',-1);
#1328=INTEGER_REPRESENTATION_ITEM('AEDT_BODYFlagGroupColor_V1',-2130706688);
#1329=INTEGER_REPRESENTATION_ITEM('AEDT_BODYFlagGroupColor_V1',5);
#1330=PROPERTY_DEFINITION('AEDT_BODYFlagGroupColor_V1','',#1319);
#1331=REPRESENTATION('',(#1326,#1327,#1328,#1329),#10);
#1332=PROPERTY_DEFINITION_REPRESENTATION(#1330,#1331);
#1333=GENERAL_PROPERTY('','AEDT_BODYFlagGroupColor_V1','');
#1334=GENERAL_PROPERTY_ASSOCIATION('','',#1333,#1330);
#1335=DESCRIPTIVE_REPRESENTATION_ITEM('AEDT_EntityName_V1','CoaxPin1');
#1336=PROPERTY_DEFINITION('AEDT_EntityName_V1','',#1319);
#1337=REPRESENTATION('',(#1335),#10);
#1338=PROPERTY_DEFINITION_REPRESENTATION(#1336,#1337);
#1339=GENERAL_PROPERTY('','AEDT_EntityName_V1','');
#1340=GENERAL_PROPERTY_ASSOCIATION('','',#1339,#1336);
#1342=CARTESIAN_POINT('',(0.,8.6,-21.8575));
#1343=DIRECTION('',(0.,0.,-1.));
#1344=DIRECTION('',(-1.,0.,0.));
#1345=AXIS2_PLACEMENT_3D('',#1342,#1343,#1344);
#1346=PLANE('',#1345);
#1347=CARTESIAN_POINT('',(3.6,8.6,-21.8575));
#1348=VERTEX_POINT('',#1347);
#1349=CARTESIAN_POINT('',(0.,8.6,-21.8575));
#1350=DIRECTION('',(0.,0.,1.));
#1351=DIRECTION('',(1.,0.,-0.));
#1352=AXIS2_PLACEMENT_3D('',#1349,#1350,#1351);
#1353=CIRCLE('',#1352,3.6);
#1354=EDGE_CURVE('',#1348,#1348,#1353,.T.);
#1355=ORIENTED_EDGE('',*,*,#1354,.F.);
#1356=EDGE_LOOP('',(#1355));
#1357=FACE_BOUND('',#1356,.T.);
#1358=ADVANCED_FACE('',(#1357),#1346,.T.);
#1359=CARTESIAN_POINT('',(0.,8.6,-21.7));
#1360=DIRECTION('',(0.,0.,1.));
#1361=DIRECTION('',(1.,0.,0.));
#1362=AXIS2_PLACEMENT_3D('',#1359,#1360,#1361);
#1363=PLANE('',#1362);
#1364=CARTESIAN_POINT('',(3.6,8.6,-21.7));
#1365=VERTEX_POINT('',#1364);
#1366=CARTESIAN_POINT('',(0.,8.6,-21.7));
#1367=DIRECTION('',(0.,0.,-1.));
#1368=DIRECTION('',(1.,0.,0.));
#1369=AXIS2_PLACEMENT_3D('',#1366,#1367,#1368);
#1370=CIRCLE('',#1369,3.6);
#1371=EDGE_CURVE('',#1365,#1365,#1370,.T.);
#1372=ORIENTED_EDGE('',*,*,#1371,.F.);
#1373=EDGE_LOOP('',(#1372));
#1374=FACE_BOUND('',#1373,.T.);
#1375=ADVANCED_FACE('',(#1374),#1363,.T.);
#1376=CARTESIAN_POINT('',(0.,8.6,-21.7));
#1377=DIRECTION('',(0.,0.,-1.));
#1378=DIRECTION('',(1.,0.,0.));
#1379=AXIS2_PLACEMENT_3D('',#1376,#1377,#1378);
#1380=CYLINDRICAL_SURFACE('',#1379,3.6);
#1381=CARTESIAN_POINT('',(3.6,8.6,-21.8575));
#1382=DIRECTION('',(-0.,-0.,1.));
#1383=VECTOR('',#1382,0.1575);
#1384=LINE('',#1381,#1383);
#1385=EDGE_CURVE('',#1348,#1365,#1384,.T.);
#1386=ORIENTED_EDGE('',*,*,#1385,.T.);
#1387=ORIENTED_EDGE('',*,*,#1371,.T.);
#1388=ORIENTED_EDGE('',*,*,#1385,.F.);
#1389=ORIENTED_EDGE('',*,*,#1354,.T.);
#1390=EDGE_LOOP('',(#1386,#1387,#1388,#1389));
#1391=FACE_BOUND('',#1390,.T.);
#1392=ADVANCED_FACE('',(#1391),#1380,.T.);
#1393=CLOSED_SHELL('',(#1358,#1375,#1392));
#1394=MANIFOLD_SOLID_BREP('PortCap1',#1393);
#1341=STYLED_ITEM('',(#875),#1394);
#1395=DESCRIPTIVE_REPRESENTATION_ITEM('AEDT_MaterialName_V1','copper');
#1396=ID_ATTRIBUTE('SA #1397',#1397);
#1397=SHAPE_ASPECT('properties','',#23,.F.);
#1398=GEOMETRIC_ITEM_SPECIFIC_USAGE('','properties',#1397,#17,#1394);
#1399=PROPERTY_DEFINITION('AEDT_MaterialName_V1','',#1397);
#1400=REPRESENTATION('',(#1395),#10);
#1401=PROPERTY_DEFINITION_REPRESENTATION(#1399,#1400);
#1402=GENERAL_PROPERTY('','AEDT_MaterialName_V1','');
#1403=GENERAL_PROPERTY_ASSOCIATION('','',#1402,#1399);
#1404=INTEGER_REPRESENTATION_ITEM('AEDT_BODYFlagGroupColor_V1',0);
#1405=INTEGER_REPRESENTATION_ITEM('AEDT_BODYFlagGroupColor_V1',-1);
#1406=INTEGER_REPRESENTATION_ITEM('AEDT_BODYFlagGroupColor_V1',-2138067057);
#1407=INTEGER_REPRESENTATION_ITEM('AEDT_BODYFlagGroupColor_V1',5);
#1408=PROPERTY_DEFINITION('AEDT_BODYFlagGroupColor_V1','',#1397);
#1409=REPRESENTATION('',(#1404,#1405,#1406,#1407),#10);
#1410=PROPERTY_DEFINITION_REPRESENTATION(#1408,#1409);
#1411=GENERAL_PROPERTY('','AEDT_BODYFlagGroupColor_V1','');
#1412=GENERAL_PROPERTY_ASSOCIATION('','',#1411,#1408);
#1413=DESCRIPTIVE_REPRESENTATION_ITEM('AEDT_EntityName_V1','PortCap1');
#1414=PROPERTY_DEFINITION('AEDT_EntityName_V1','',#1397);
#1415=REPRESENTATION('',(#1413),#10);
#1416=PROPERTY_DEFINITION_REPRESENTATION(#1414,#1415);
#1417=GENERAL_PROPERTY('','AEDT_EntityName_V1','');
#1418=GENERAL_PROPERTY_ASSOCIATION('','',#1417,#1414);
#1420=CARTESIAN_POINT('',(0.,8.6,0.8224));
#1421=DIRECTION('',(0.,0.,1.));
#1422=DIRECTION('',(1.,0.,0.));
#1423=AXIS2_PLACEMENT_3D('',#1420,#1421,#1422);
#1424=PLANE('',#1423);
#1425=CARTESIAN_POINT('',(1.08,8.6,0.8224));
#1426=VERTEX_POINT('',#1425);
#1427=CARTESIAN_POINT('',(0.,8.6,0.8224));
#1428=DIRECTION('',(0.,0.,-1.));
#1429=DIRECTION('',(1.,0.,0.));
#1430=AXIS2_PLACEMENT_3D('',#1427,#1428,#1429);
#1431=CIRCLE('',#1430,1.08);
#1432=EDGE_CURVE('',#1426,#1426,#1431,.T.);
#1433=ORIENTED_EDGE('',*,*,#1432,.F.);
#1434=EDGE_LOOP('',(#1433));
#1435=FACE_BOUND('',#1434,.T.);
#1436=ADVANCED_FACE('',(#1435),#1424,.T.);
#1437=CARTESIAN_POINT('',(0.,8.6,0.));
#1438=DIRECTION('',(0.,0.,-1.));
#1439=DIRECTION('',(-1.,0.,0.));
#1440=AXIS2_PLACEMENT_3D('',#1437,#1438,#1439);
#1441=PLANE('',#1440);
#1442=CARTESIAN_POINT('',(1.08,8.6,0.));
#1443=VERTEX_POINT('',#1442);
#1444=CARTESIAN_POINT('',(0.,8.6,0.));
#1445=DIRECTION('',(0.,0.,1.));
#1446=DIRECTION('',(1.,0.,-0.));
#1447=AXIS2_PLACEMENT_3D('',#1444,#1445,#1446);
#1448=CIRCLE('',#1447,1.08);
#1449=EDGE_CURVE('',#1443,#1443,#1448,.T.);
#1450=ORIENTED_EDGE('',*,*,#1449,.F.);
#1451=EDGE_LOOP('',(#1450));
#1452=FACE_BOUND('',#1451,.T.);
#1453=ADVANCED_FACE('',(#1452),#1441,.T.);
#1454=CARTESIAN_POINT('',(0.,8.6,0.));
#1455=DIRECTION('',(0.,0.,1.));
#1456=DIRECTION('',(1.,0.,-0.));
#1457=AXIS2_PLACEMENT_3D('',#1454,#1455,#1456);
#1458=CYLINDRICAL_SURFACE('',#1457,1.08);
#1459=CARTESIAN_POINT('',(1.08,8.6,0.8224));
#1460=DIRECTION('',(-0.,-0.,-1.));
#1461=VECTOR('',#1460,0.8224);
#1462=LINE('',#1459,#1461);
#1463=EDGE_CURVE('',#1426,#1443,#1462,.T.);
#1464=ORIENTED_EDGE('',*,*,#1463,.T.);
#1465=ORIENTED_EDGE('',*,*,#1449,.T.);
#1466=ORIENTED_EDGE('',*,*,#1463,.F.);
#1467=ORIENTED_EDGE('',*,*,#1432,.T.);
#1468=EDGE_LOOP('',(#1464,#1465,#1466,#1467));
#1469=FACE_BOUND('',#1468,.T.);
#1470=ADVANCED_FACE('',(#1469),#1458,.T.);
#1471=CLOSED_SHELL('',(#1436,#1453,#1470));
#1472=MANIFOLD_SOLID_BREP('FeedP1',#1471);
#1419=STYLED_ITEM('',(#960),#1472);
#1473=DESCRIPTIVE_REPRESENTATION_ITEM('AEDT_MaterialName_V1','copper');
#1474=ID_ATTRIBUTE('SA #1475',#1475);
#1475=SHAPE_ASPECT('properties','',#23,.F.);
#1476=GEOMETRIC_ITEM_SPECIFIC_USAGE('','properties',#1475,#17,#1472);
#1477=PROPERTY_DEFINITION('AEDT_MaterialName_V1','',#1475);
#1478=REPRESENTATION('',(#1473),#10);
#1479=PROPERTY_DEFINITION_REPRESENTATION(#1477,#1478);
#1480=GENERAL_PROPERTY('','AEDT_MaterialName_V1','');
#1481=GENERAL_PROPERTY_ASSOCIATION('','',#1480,#1477);
#1482=INTEGER_REPRESENTATION_ITEM('AEDT_BODYFlagGroupColor_V1',0);
#1483=INTEGER_REPRESENTATION_ITEM('AEDT_BODYFlagGroupColor_V1',-1);
#1484=INTEGER_REPRESENTATION_ITEM('AEDT_BODYFlagGroupColor_V1',-2130706688);
#1485=INTEGER_REPRESENTATION_ITEM('AEDT_BODYFlagGroupColor_V1',5);
#1486=PROPERTY_DEFINITION('AEDT_BODYFlagGroupColor_V1','',#1475);
#1487=REPRESENTATION('',(#1482,#1483,#1484,#1485),#10);
#1488=PROPERTY_DEFINITION_REPRESENTATION(#1486,#1487);
#1489=GENERAL_PROPERTY('','AEDT_BODYFlagGroupColor_V1','');
#1490=GENERAL_PROPERTY_ASSOCIATION('','',#1489,#1486);
#1491=DESCRIPTIVE_REPRESENTATION_ITEM('AEDT_EntityName_V1','FeedP1');
#1492=PROPERTY_DEFINITION('AEDT_EntityName_V1','',#1475);
#1493=REPRESENTATION('',(#1491),#10);
#1494=PROPERTY_DEFINITION_REPRESENTATION(#1492,#1493);
#1495=GENERAL_PROPERTY('','AEDT_EntityName_V1','');
#1496=GENERAL_PROPERTY_ASSOCIATION('','',#1495,#1492);
#1498=CARTESIAN_POINT('',(0.,8.6,-21.8575));
#1499=DIRECTION('',(0.,0.,1.));
#1500=DIRECTION('',(1.,0.,0.));
#1501=AXIS2_PLACEMENT_3D('',#1498,#1499,#1500);
#1502=PLANE('',#1501);
#1503=CARTESIAN_POINT('',(3.6,8.6,-21.8575));
#1504=VERTEX_POINT('',#1503);
#1505=CARTESIAN_POINT('',(0.,8.6,-21.8575));
#1506=DIRECTION('',(0.,0.,1.));
#1507=DIRECTION('',(1.,0.,-0.));
#1508=AXIS2_PLACEMENT_3D('',#1505,#1506,#1507);
#1509=CIRCLE('',#1508,3.6);
#1510=EDGE_CURVE('',#1504,#1504,#1509,.T.);
#1511=ORIENTED_EDGE('',*,*,#1510,.T.);
#1512=EDGE_LOOP('',(#1511));
#1513=FACE_BOUND('',#1512,.T.);
#1514=ADVANCED_FACE('',(#1513),#1502,.T.);
#1515=OPEN_SHELL('',(#1514));
#1516=SHELL_BASED_SURFACE_MODEL('Port3',(#1515));
#1497=STYLED_ITEM('',(#875),#1516);
#1517=DESCRIPTIVE_REPRESENTATION_ITEM('AEDT_MaterialName_V1','vacuum');
#1518=ID_ATTRIBUTE('SA #1519',#1519);
#1519=SHAPE_ASPECT('properties','',#23,.F.);
#1520=GEOMETRIC_ITEM_SPECIFIC_USAGE('','properties',#1519,#21,#1516);
#1521=PROPERTY_DEFINITION('AEDT_MaterialName_V1','',#1519);
#1522=REPRESENTATION('',(#1517),#10);
#1523=PROPERTY_DEFINITION_REPRESENTATION(#1521,#1522);
#1524=GENERAL_PROPERTY('','AEDT_MaterialName_V1','');
#1525=GENERAL_PROPERTY_ASSOCIATION('','',#1524,#1521);
#1526=INTEGER_REPRESENTATION_ITEM('AEDT_BODYFlagGroupColor_V1',0);
#1527=INTEGER_REPRESENTATION_ITEM('AEDT_BODYFlagGroupColor_V1',-1);
#1528=INTEGER_REPRESENTATION_ITEM('AEDT_BODYFlagGroupColor_V1',-2138067057);
#1529=INTEGER_REPRESENTATION_ITEM('AEDT_BODYFlagGroupColor_V1',5);
#1530=PROPERTY_DEFINITION('AEDT_BODYFlagGroupColor_V1','',#1519);
#1531=REPRESENTATION('',(#1526,#1527,#1528,#1529),#10);
#1532=PROPERTY_DEFINITION_REPRESENTATION(#1530,#1531);
#1533=GENERAL_PROPERTY('','AEDT_BODYFlagGroupColor_V1','');
#1534=GENERAL_PROPERTY_ASSOCIATION('','',#1533,#1530);
#1535=DESCRIPTIVE_REPRESENTATION_ITEM('AEDT_EntityName_V1','Port3');
#1536=PROPERTY_DEFINITION('AEDT_EntityName_V1','',#1519);
#1537=REPRESENTATION('',(#1535),#10);
#1538=PROPERTY_DEFINITION_REPRESENTATION(#1536,#1537);
#1539=GENERAL_PROPERTY('','AEDT_EntityName_V1','');
#1540=GENERAL_PROPERTY_ASSOCIATION('','',#1539,#1536);
#1542=CARTESIAN_POINT('',(0.,-26.532342687,0.));
#1543=DIRECTION('',(0.,-1.,0.));
#1544=DIRECTION('',(0.,-0.,-1.));
#1545=AXIS2_PLACEMENT_3D('',#1542,#1543,#1544);
#1546=PLANE('',#1545);
#1547=CARTESIAN_POINT('',(1.658271418,-26.532342687,0.7874));
#1548=VERTEX_POINT('',#1547);
#1549=CARTESIAN_POINT('',(-1.658271418,-26.532342687,0.7874));
#1550=VERTEX_POINT('',#1549);
#1551=CARTESIAN_POINT('',(1.658271418,-26.532342687,0.7874));
#1552=DIRECTION('',(-1.,-0.,0.));
#1553=VECTOR('',#1552,3.316542836);
#1554=LINE('',#1551,#1553);
#1555=EDGE_CURVE('',#1548,#1550,#1554,.T.);
#1556=ORIENTED_EDGE('',*,*,#1555,.T.);
#1557=CARTESIAN_POINT('',(-1.658271418,-26.532342687,0.));
#1558=VERTEX_POINT('',#1557);
#1559=CARTESIAN_POINT('',(-1.658271418,-26.532342687,0.7874));
#1560=DIRECTION('',(-0.,-0.,-1.));
#1561=VECTOR('',#1560,0.7874);
#1562=LINE('',#1559,#1561);
#1563=EDGE_CURVE('',#1550,#1558,#1562,.T.);
#1564=ORIENTED_EDGE('',*,*,#1563,.T.);
#1565=CARTESIAN_POINT('',(1.658271418,-26.532342687,-0.));
#1566=VERTEX_POINT('',#1565);
#1567=CARTESIAN_POINT('',(-1.658271418,-26.532342687,0.));
#1568=DIRECTION('',(1.,0.,-0.));
#1569=VECTOR('',#1568,3.316542836);
#1570=LINE('',#1567,#1569);
#1571=EDGE_CURVE('',#1558,#1566,#1570,.T.);
#1572=ORIENTED_EDGE('',*,*,#1571,.T.);
#1573=CARTESIAN_POINT('',(1.658271418,-26.532342687,-0.));
#1574=DIRECTION('',(0.,0.,1.));
#1575=VECTOR('',#1574,0.7874);
#1576=LINE('',#1573,#1575);
#1577=EDGE_CURVE('',#1566,#1548,#1576,.T.);
#1578=ORIENTED_EDGE('',*,*,#1577,.T.);
#1579=EDGE_LOOP('',(#1556,#1564,#1572,#1578));
#1580=FACE_BOUND('',#1579,.T.);
#1581=ADVANCED_FACE('',(#1580),#1546,.T.);
#1582=OPEN_SHELL('',(#1581));
#1583=SHELL_BASED_SURFACE_MODEL('Port1',(#1582));
#1541=STYLED_ITEM('',(#875),#1583);
#1584=DESCRIPTIVE_REPRESENTATION_ITEM('AEDT_MaterialName_V1','vacuum');
#1585=ID_ATTRIBUTE('SA #1586',#1586);
#1586=SHAPE_ASPECT('properties','',#23,.F.);
#1587=GEOMETRIC_ITEM_SPECIFIC_USAGE('','properties',#1586,#21,#1583);
#1588=PROPERTY_DEFINITION('AEDT_MaterialName_V1','',#1586);
#1589=REPRESENTATION('',(#1584),#10);
#1590=PROPERTY_DEFINITION_REPRESENTATION(#1588,#1589);
#1591=GENERAL_PROPERTY('','AEDT_MaterialName_V1','');
#1592=GENERAL_PROPERTY_ASSOCIATION('','',#1591,#1588);
#1593=INTEGER_REPRESENTATION_ITEM('AEDT_BODYFlagGroupColor_V1',0);
#1594=INTEGER_REPRESENTATION_ITEM('AEDT_BODYFlagGroupColor_V1',-1);
#1595=INTEGER_REPRESENTATION_ITEM('AEDT_BODYFlagGroupColor_V1',-2138067057);
#1596=INTEGER_REPRESENTATION_ITEM('AEDT_BODYFlagGroupColor_V1',5);
#1597=PROPERTY_DEFINITION('AEDT_BODYFlagGroupColor_V1','',#1586);
#1598=REPRESENTATION('',(#1593,#1594,#1595,#1596),#10);
#1599=PROPERTY_DEFINITION_REPRESENTATION(#1597,#1598);
#1600=GENERAL_PROPERTY('','AEDT_BODYFlagGroupColor_V1','');
#1601=GENERAL_PROPERTY_ASSOCIATION('','',#1600,#1597);
#1602=DESCRIPTIVE_REPRESENTATION_ITEM('AEDT_EntityName_V1','Port1');
#1603=PROPERTY_DEFINITION('AEDT_EntityName_V1','',#1586);
#1604=REPRESENTATION('',(#1602),#10);
#1605=PROPERTY_DEFINITION_REPRESENTATION(#1603,#1604);
#1606=GENERAL_PROPERTY('','AEDT_EntityName_V1','');
#1607=GENERAL_PROPERTY_ASSOCIATION('','',#1606,#1603);
#16=SHAPE_REPRESENTATION('CircularPatchV3_intermediate',(#15),#10);
#17=ADVANCED_BREP_SHAPE_REPRESENTATION('CircularPatchV3_intermediate',(#254,#783,#868,#953,#1038,#1116,#1238,#1316,#1394,#1472),#10);
#1615=SHAPE_REPRESENTATION_RELATIONSHIP('','',#16,#17);
#21=MANIFOLD_SURFACE_SHAPE_REPRESENTATION('CircularPatchV3_intermediate',(#350,#1160,#1516,#1583),#10);
#1623=SHAPE_REPRESENTATION_RELATIONSHIP('','',#16,#21);
#1624=CARTESIAN_POINT('',(0.,0.,0.));
#1625=DIRECTION('',(0.,0.,1.));
#1626=DIRECTION('',(1.,0.,0.));
#1627=AXIS2_PLACEMENT_3D('',#1624,#1625,#1626);
#1629=MAPPED_ITEM('',#1628,#1627);
#1628=REPRESENTATION_MAP(#1627,#16);
#1630=APPLICATION_CONTEXT('Managed model based 3d engineering');
#1631=APPLICATION_PROTOCOL_DEFINITION('international standard','ap242_managed_model_based_3d_engineering',2013,#1630);
#1632=PRODUCT_CONTEXT('',#1630,'mechanical');
#1633=PRODUCT_DEFINITION_CONTEXT('part definition',#1630,'design');
#24=PRODUCT('CircularPatchV3_intermediate','CircularPatchV3_intermediate','',(#1632));
#1634=PRODUCT_RELATED_PRODUCT_CATEGORY('part','',(#24));
#1635=PRODUCT_DEFINITION_FORMATION_WITH_SPECIFIED_SOURCE('','',#24,.NOT_KNOWN.);
#25=PRODUCT_DEFINITION('design','',#1635,#1633);
#23=PRODUCT_DEFINITION_SHAPE('','',#25);
#1636=SHAPE_DEFINITION_REPRESENTATION(#23,#16);
#11=DRAUGHTING_MODEL('',(#1629),#10);
#1637=DESCRIPTIVE_REPRESENTATION_ITEM('KEY','C:/Users/Legit/AppData/Local/Temp/CircularPatchV3_intermediate.x_b');
#1638=PROPERTY_DEFINITION('KEY','',#25);
#1639=REPRESENTATION('',(#1637),#10);
#1640=PROPERTY_DEFINITION_REPRESENTATION(#1638,#1639);
#1641=GENERAL_PROPERTY('','KEY','');
#1642=GENERAL_PROPERTY_ASSOCIATION('','',#1641,#1638);
#1=MECHANICAL_DESIGN_GEOMETRIC_PRESENTATION_REPRESENTATION('',(#26,#286,#382,#815,#900,#985,#1063,#1141,#1185,#1263,#1341,#1419,#1497,#1541),#10);
ENDSEC;
END-ISO-10303-21;
